<?xml version="1.0" encoding="UTF-8" standalone="no"?>
<!-- Created with Inkscape (http://www.inkscape.org/) -->

<svg
   xmlns:dc="http://purl.org/dc/elements/1.1/"
   xmlns:cc="http://creativecommons.org/ns#"
   xmlns:rdf="http://www.w3.org/1999/02/22-rdf-syntax-ns#"
   xmlns:svg="http://www.w3.org/2000/svg"
   xmlns="http://www.w3.org/2000/svg"
   xmlns:sodipodi="http://sodipodi.sourceforge.net/DTD/sodipodi-0.dtd"
   xmlns:inkscape="http://www.inkscape.org/namespaces/inkscape"
   id="svg2"
   version="1.1"
   inkscape:version="0.91 r13725"
   width="300"
   height="200"
   viewBox="0 0 300 200"
   sodipodi:docname="Alb.svg"
   inkscape:export-filename="D:\YS\css\Albo.png"
   inkscape:export-xdpi="150"
   inkscape:export-ydpi="150">
  <metadata
     id="metadata8">
    <rdf:RDF>
      <cc:Work
         rdf:about="">
        <dc:format>image/svg+xml</dc:format>
        <dc:type
           rdf:resource="http://purl.org/dc/dcmitype/StillImage" />
        <dc:title></dc:title>
      </cc:Work>
    </rdf:RDF>
  </metadata>
  <defs
     id="defs6" />
  <sodipodi:namedview
     pagecolor="#ffffff"
     bordercolor="#666666"
     borderopacity="1"
     objecttolerance="10"
     gridtolerance="10"
     guidetolerance="10"
     inkscape:pageopacity="0"
     inkscape:pageshadow="2"
     inkscape:window-width="1366"
     inkscape:window-height="715"
     id="namedview4"
     showgrid="false"
     fit-margin-top="0"
     fit-margin-left="0"
     fit-margin-right="0"
     fit-margin-bottom="0"
     inkscape:zoom="1.3295775"
     inkscape:cx="127.0501"
     inkscape:cy="159.60927"
     inkscape:window-x="-8"
     inkscape:window-y="-8"
     inkscape:window-maximized="1"
     inkscape:current-layer="svg2" />
  <path
     style="opacity:1;fill:#171717;fill-opacity:1"
     d="m 211.92639,24.365889 c -4.21018,0.02398 -8.21333,1.65825 -9.98164,4.357034 -1.62655,2.482511 -1.62005,2.917031 0.0752,5.504301 1.01235,1.54504 2.92578,3.24714 4.25176,3.78125 3.48607,1.4042 11.51227,1.31717 14.30859,-0.15469 6.92634,-3.64574 4.56228,-10.528477 -4.44941,-12.955077 -1.37454,-0.370128 -2.8011,-0.540815 -4.2045,-0.532818 z m 34.1709,20.399415 c -11.17368,-0.0584 -15.08986,9.23783 -4.95,14.48906 4.78106,2.47602 13.30761,1.99065 16.54942,-0.94316 5.36053,-4.85121 0.1823,-12.33863 -9.27052,-13.4041 -0.80741,-0.091 -1.58398,-0.13791 -2.3289,-0.1418 z m -49.66543,0.95176 c -1.80473,0.0146 -3.58874,0.55495 -4.98867,1.82188 -2.48509,2.24897 -2.52427,3.48918 -0.19121,6.06718 2.11,2.33152 10.16679,2.78613 12.26113,0.6918 3.94401,-3.94401 -1.66705,-8.62489 -7.08125,-8.58086 z m 21.52519,13.48359 c -1.65295,-0.0219 -3.185,0.20741 -4.17441,0.73691 -3.10276,1.66057 -3.05216,6.0653 0.0945,8.26934 2.81057,1.96859 7.73429,2.2294 10.82813,0.57364 2.48375,-1.32927 2.81723,-5.71945 0.57578,-7.57969 -1.47687,-1.22569 -4.56911,-1.96365 -7.32403,-2.0002 z m 46.07754,16.21856 c -11.9327,0 -15.47374,11.73909 -5.08534,16.85878 7.13386,3.51577 16.9017,1.90213 19.65819,-3.24843 3.3155,-6.19508 -4.62528,-13.61035 -14.57285,-13.61035 z m -36.45254,3.51914 c -1.97516,0.0626 -3.82703,0.65809 -5.06816,1.89921 -2.69985,2.69985 -1.8581,6.23913 1.98086,8.3252 6.23246,3.38669 13.94715,0.37369 12.56621,-4.90702 -0.81353,-3.11094 -4.81581,-5.14531 -8.62598,-5.31095 -0.28576,-0.0124 -0.57076,-0.0154 -0.85293,-0.007 z m -5.28945,21.477926 c -1.05705,0.0241 -2.11854,0.21178 -3.13887,0.57364 -4.99079,1.76996 -5.87768,5.9879 -2.01523,9.58632 1.64678,1.53421 3.89958,2.24297 7.12637,2.24297 3.84603,0 5.05645,-0.521 6.55918,-2.81445 1.74646,-2.66544 1.72795,-2.96832 -0.36523,-5.775 -1.86262,-2.49756 -4.99507,-3.88576 -8.16622,-3.81348 z m -83.65585,9.33066 c -0.38157,0.18879 -0.77351,0.37802 -1.16875,0.56719 0.45336,-0.11268 0.84751,-0.3052 1.16875,-0.56719 z m 119.43808,1.01836 c -2.56755,-0.0532 -5.18404,0.43527 -7.59903,1.58125 -8.08252,3.8354 -7.00321,13.47221 2.02384,18.06406 9.59658,4.88157 20.53261,0.79192 20.53261,-7.67851 0,-6.77401 -7.25477,-11.80698 -14.95742,-11.9668 z m -119.49824,6.44317 c -2.47045,-0.0318 -5.0405,0.80593 -6.94375,2.70918 -3.27534,3.27533 -3.40372,5.39842 -0.50059,8.30156 2.77908,2.77908 10.49588,2.99642 13.38907,0.37812 1.10639,-1.00126 2.01093,-3.20077 2.01093,-4.8877 0,-3.97933 -3.83825,-6.44816 -7.95566,-6.50116 z m 63.09316,0.0752 c -0.29027,-0.01 -0.58071,-0.008 -0.87011,0.004 -2.10478,0.0901 -4.15179,0.77007 -5.659,2.17422 -3.04262,2.83459 -3.04847,5.18447 -0.0172,8.41113 1.77316,1.88744 3.60331,2.5459 7.07266,2.5459 5.52655,0 8.13613,-2.13465 8.13613,-6.65156 0,-3.77729 -4.30852,-6.34157 -8.6625,-6.48398 z m -31.6207,6.48398 c -2.56779,-0.008 -5.19673,0.86322 -7.03184,2.8166 -2.15999,2.29922 -2.42184,3.26953 -1.54902,5.75137 0.5775,1.64211 2.27879,3.60759 3.78125,4.36777 3.41689,1.72882 6.04912,1.77249 9.13086,0.15039 3.16226,-1.66448 4.01442,-3.06927 4.03477,-6.64727 0.0226,-3.96964 -4.08638,-6.4261 -8.36602,-6.43886 z m 53.60352,16.49141 c -4.41334,-0.0334 -8.73579,1.43231 -11.39532,4.40859 -5.29014,5.9202 -3.16138,13.52028 4.90703,17.51406 10.91948,5.40504 21.76797,0.75365 21.76797,-9.33495 0,-3.72211 -0.67179,-5.32961 -3.34297,-8.00079 -3.01935,-3.01935 -7.52339,-4.55344 -11.93671,-4.58691 z m -106.95352,0.0365 c -4.70888,0.055 -9.60773,1.70631 -12.77461,4.67286 -5.467493,5.12161 -3.64004,14.89765 3.3537,17.93945 10.15594,4.41711 22.75411,-1.78087 22.75411,-11.19551 0,-4.9894 -1.51688,-7.68377 -5.47852,-9.73242 -2.27319,-1.17552 -5.02935,-1.71738 -7.85468,-1.68438 z m 53.59277,11.16543 c -2.54306,0.0494 -5.23437,0.73534 -8.12539,2.04746 -8.74476,3.96892 -10.11386,13.40167 -2.86816,19.76347 3.15866,2.77336 4.75092,3.34727 9.30703,3.34727 10.49834,0 16.42695,-4.67503 16.42695,-12.95507 0,-3.18478 -0.74902,-4.94867 -3.025,-7.11993 -3.65119,-3.48319 -7.477,-5.16557 -11.71543,-5.0832 z"
     id="path4170"
     inkscape:connector-curvature="0" />
  <text
     xml:space="preserve"
     style="font-style:normal;font-weight:normal;font-size:58.7845459px;line-height:125%;font-family:sans-serif;letter-spacing:0px;word-spacing:0px;fill:#171717;fill-opacity:1;stroke:none;stroke-width:1px;stroke-linecap:butt;stroke-linejoin:miter;stroke-opacity:1"
     x="13.357491"
     y="94.146217"
     id="text4134"
     sodipodi:linespacing="125%"><tspan
       sodipodi:role="line"
       id="tspan4136"
       x="13.357491"
       y="94.146217"
       style="font-style:normal;font-variant:normal;font-weight:bold;font-stretch:normal;font-family:'Segoe UI';-inkscape-font-specification:'Segoe UI Bold';fill:#171717;fill-opacity:1">Alborg</tspan></text>
</svg>
