<?xml version="1.0" encoding="UTF-8" standalone="no"?>
<!-- Created with Inkscape (http://www.inkscape.org/) -->

<svg
   xmlns:dc="http://purl.org/dc/elements/1.1/"
   xmlns:cc="http://creativecommons.org/ns#"
   xmlns:rdf="http://www.w3.org/1999/02/22-rdf-syntax-ns#"
   xmlns:svg="http://www.w3.org/2000/svg"
   xmlns="http://www.w3.org/2000/svg"
   xmlns:sodipodi="http://sodipodi.sourceforge.net/DTD/sodipodi-0.dtd"
   xmlns:inkscape="http://www.inkscape.org/namespaces/inkscape"
   id="svg2"
   version="1.1"
   inkscape:version="0.91 r13725"
   width="300"
   height="300"
   viewBox="0 0 300 300"
   sodipodi:docname="Alba.svg"
   inkscape:export-filename="D:\YS\css\Alb.png"
   inkscape:export-xdpi="150"
   inkscape:export-ydpi="150">
  <metadata
     id="metadata8">
    <rdf:RDF>
      <cc:Work
         rdf:about="">
        <dc:format>image/svg+xml</dc:format>
        <dc:type
           rdf:resource="http://purl.org/dc/dcmitype/StillImage" />
        <dc:title />
      </cc:Work>
    </rdf:RDF>
  </metadata>
  <defs
     id="defs6" />
  <sodipodi:namedview
     pagecolor="#ffffff"
     bordercolor="#666666"
     borderopacity="1"
     objecttolerance="10"
     gridtolerance="10"
     guidetolerance="10"
     inkscape:pageopacity="0"
     inkscape:pageshadow="2"
     inkscape:window-width="1366"
     inkscape:window-height="715"
     id="namedview4"
     showgrid="false"
     fit-margin-top="0"
     fit-margin-left="0"
     fit-margin-right="0"
     fit-margin-bottom="0"
     showguides="true"
     inkscape:guide-bbox="true"
     inkscape:zoom="0.84333818"
     inkscape:cx="-153.74387"
     inkscape:cy="155.28893"
     inkscape:window-x="-8"
     inkscape:window-y="-8"
     inkscape:window-maximized="1"
     inkscape:current-layer="svg2">
    <sodipodi:guide
       position="118.99868,11.857606"
       orientation="0,1"
       id="guide4180"
       inkscape:label=""
       inkscape:color="rgb(0,0,255)" />
  </sodipodi:namedview>
  <g
     id="g4166"
     transform="translate(29.644099,45.435769)">
    <circle
       r="140.51292"
       style="opacity:1;fill:#0e1b65;fill-opacity:1;stroke:none;stroke-width:12;stroke-linecap:round;stroke-linejoin:round;stroke-miterlimit:4;stroke-dasharray:none;stroke-opacity:1"
       id="circle4144"
       cx="136.19215"
       cy="238.55655" />
    <circle
       r="119.03161"
       style="opacity:1;fill:#80cff4;fill-opacity:1;stroke:none;stroke-width:12;stroke-linecap:round;stroke-linejoin:round;stroke-miterlimit:4;stroke-dasharray:none;stroke-opacity:1"
       id="circle4140"
       cx="165.25513"
       cy="252.45624" />
    <circle
       r="66.212837"
       cy="253.21436"
       cx="214.53577"
       id="path4138"
       style="opacity:1;fill:#0e1b65;fill-opacity:1;stroke:none;stroke-width:12;stroke-linecap:round;stroke-linejoin:round;stroke-miterlimit:4;stroke-dasharray:none;stroke-opacity:1" />
    <circle
       r="37.908043"
       cy="254.22527"
       cx="184.20921"
       id="circle4142"
       style="opacity:1;fill:#80cff4;fill-opacity:1;stroke:none;stroke-width:12;stroke-linecap:round;stroke-linejoin:round;stroke-miterlimit:4;stroke-dasharray:none;stroke-opacity:1" />
    <rect
       ry="3.0326567"
       y="170.82739"
       x="133.66508"
       height="55.598717"
       width="12.130621"
       id="rect4148"
       style="opacity:1;fill:#ffffff;fill-opacity:1;stroke:none;stroke-width:12;stroke-linecap:round;stroke-linejoin:round;stroke-miterlimit:4;stroke-dasharray:none;stroke-opacity:1" />
    <rect
       style="opacity:1;fill:#ffffff;fill-opacity:1;stroke:none;stroke-width:12;stroke-linecap:round;stroke-linejoin:round;stroke-miterlimit:4;stroke-dasharray:none;stroke-opacity:1"
       id="rect4150"
       width="12.130621"
       height="55.598717"
       x="112.35252"
       y="170.82739"
       ry="3.0326567" />
    <rect
       ry="3.0326567"
       y="184.46768"
       x="72.113647"
       height="55.598717"
       width="12.130621"
       id="rect4152"
       style="opacity:1;fill:#ffffff;fill-opacity:1;stroke:none;stroke-width:12;stroke-linecap:round;stroke-linejoin:round;stroke-miterlimit:4;stroke-dasharray:none;stroke-opacity:1" />
    <rect
       style="opacity:1;fill:#ffffff;fill-opacity:1;stroke:none;stroke-width:12;stroke-linecap:round;stroke-linejoin:round;stroke-miterlimit:4;stroke-dasharray:none;stroke-opacity:1"
       id="rect4154"
       width="12.130621"
       height="55.598717"
       x="50.971188"
       y="184.46768"
       ry="3.0326567" />
    <path
       sodipodi:nodetypes="cccczccc"
       inkscape:connector-curvature="0"
       id="path4156"
       d="m 112.9419,189.52839 32.85378,0.50544 0,-44.47897 c 12.85352,-7.02315 28.34533,-11.65146 25.77758,-35.38099 0,0 -11.14548,24.75426 -42.96263,25.27215 -31.817146,0.51787 -43.468072,-11.11974 -43.468072,-11.11974 -0.551665,5.18247 0.290419,18.11598 26.283022,24.76668 z"
       style="fill:#ffffff;fill-opacity:1;fill-rule:evenodd;stroke:none;stroke-width:1px;stroke-linecap:butt;stroke-linejoin:miter;stroke-opacity:1" />
    <circle
       r="10.86702"
       style="opacity:1;fill:#ffffff;fill-opacity:1;stroke:none;stroke-width:12;stroke-linecap:round;stroke-linejoin:round;stroke-miterlimit:4;stroke-dasharray:none;stroke-opacity:1"
       id="circle4162"
       cx="128.86337"
       cy="121.29362" />
    <path
       style="fill:#ffffff;fill-opacity:1;fill-rule:evenodd;stroke:none;stroke-width:1px;stroke-linecap:butt;stroke-linejoin:miter;stroke-opacity:1"
       d="m 46.728904,204.18623 c 4.289797,6.91461 41.933992,4.46457 45.489829,-0.50544 3.555855,-4.97003 -5.90471,-40.44726 -5.90471,-40.44726 0,0 10.999684,-2.03624 21.573457,13.15334 2.45346,-1.84011 2.39789,-28.99772 -40.435422,-25.77759 -42.833323,3.22014 -39.42453,35.88644 -39.42453,35.88644 9.247829,-20.08966 22.239481,-19.72408 22.239481,-19.72408 0,0 -7.827903,30.49998 -3.538105,37.41459 z"
       id="path4158"
       inkscape:connector-curvature="0"
       sodipodi:nodetypes="zzcczccz" />
    <circle
       r="10.86702"
       cy="136.45691"
       cx="66.188454"
       id="path4160"
       style="opacity:1;fill:#ffffff;fill-opacity:1;stroke:none;stroke-width:12;stroke-linecap:round;stroke-linejoin:round;stroke-miterlimit:4;stroke-dasharray:none;stroke-opacity:1" />
  </g>
  <flowRoot
     xml:space="preserve"
     id="flowRoot4182"
     style="font-style:normal;font-weight:normal;font-size:40px;line-height:125%;font-family:sans-serif;letter-spacing:0px;word-spacing:0px;fill:#000000;fill-opacity:1;stroke:none;stroke-width:1px;stroke-linecap:butt;stroke-linejoin:miter;stroke-opacity:1"><flowRegion
       id="flowRegion4184"><rect
         id="rect4186"
         width="136.36285"
         height="66.402779"
         x="37.351562"
         y="29.052952" /></flowRegion><flowPara
       id="flowPara4188" /></flowRoot>  <text
     xml:space="preserve"
     style="font-style:normal;font-weight:normal;font-size:40px;line-height:125%;font-family:sans-serif;letter-spacing:0px;word-spacing:0px;fill:#000000;fill-opacity:1;stroke:none;stroke-width:1px;stroke-linecap:butt;stroke-linejoin:miter;stroke-opacity:1"
     x="77.667534"
     y="97.827255"
     id="text4153"
     sodipodi:linespacing="125%"><tspan
       sodipodi:role="line"
       id="tspan4155"
       x="77.667534"
       y="97.827255" /></text>
  <path
     style="fill:#0e1b65;fill-opacity:1"
     d="m 85.443359,94.242188 -4.816406,0.03906 -4.818359,0.03906 -0.03711,6.310552 -0.03906,6.3125 0.896484,0 0.898438,0 0,-2.83789 0,-2.83789 3.667968,0 3.666016,0 -0.04492,-0.78516 -0.04492,-0.785158 -3.626953,-0.03906 -3.626953,-0.03906 0.04297,-1.828125 0.04102,-1.826172 3.921876,-0.04102 3.919921,-0.03906 0,-0.822266 0,-0.820312 z m 11.951171,0.0039 0,0.970703 0,0.970703 0.89649,0 0.89453,0 0,-0.970703 0,-0.970703 -0.89453,0 -0.89649,0 z m 9.85742,0 0,6.347652 0,6.34961 0.89649,0 0.89648,0 0,-2.89453 c 0,-3.21409 0.0763,-3.57555 0.92188,-4.367185 0.83539,-0.782103 1.98465,-1.011462 2.98437,-0.59375 1.2164,0.508239 1.46675,1.386185 1.46875,5.136715 l 0.002,2.73242 0.85937,-0.0449 0.85937,-0.0449 -0.002,-3.21094 c -0.002,-3.62037 -0.10073,-4.180646 -0.90625,-5.072262 -0.75294,-0.833404 -1.63369,-1.201171 -2.87695,-1.201172 -1.1854,0 -1.79026,0.175307 -2.67578,0.777344 l -0.63477,0.431641 0,-2.171875 0,-2.173828 -0.89648,0 -0.89649,0 z m -5.15234,0.671875 -0.0742,1.34375 -0.0762,1.345703 -0.7461,0.07422 c -0.68833,0.06884 -0.75022,0.107279 -0.79492,0.498047 -0.0694,0.606307 0.33633,0.996093 1.04102,0.996093 l 0.57617,0 0,2.968754 c 0,1.63283 0.0414,3.18169 0.0937,3.44336 0.11881,0.59402 0.82226,1.31438 1.36328,1.39649 0.80451,0.12206 1.66546,0.10548 2.05078,-0.041 0.34981,-0.13307 0.38671,-0.2177 0.34571,-0.78516 l -0.0449,-0.63476 -0.78125,-0.0449 c -1.20597,-0.0695 -1.23602,-0.15305 -1.23632,-3.53517 l 0,-2.841793 0.86914,0.04883 c 1.01375,0.05743 1.26861,-0.134766 1.19531,-0.898438 l -0.0469,-0.496094 -0.9707,-0.07422 -0.9707,-0.07422 -0.0762,-1.345703 -0.0742,-1.34375 -0.82227,0 -0.82031,0 z m -11.222657,2.464843 c -2.506169,10e-7 -4.094358,1.002813 -4.261719,2.691404 l -0.05078,0.51953 0.933594,0.0449 c 0.89027,0.0424 0.933594,0.0285 0.933594,-0.30273 0,-0.925874 0.890636,-1.458983 2.435547,-1.458983 1.26079,0 2.002964,0.359936 2.261718,1.095703 0.291013,0.82748 0.01691,0.95112 -3.203125,1.45117 -1.463357,0.22725 -2.049137,0.40992 -2.703125,0.84179 -0.743582,0.49108 -0.9574,0.96713 -0.957031,2.13672 3.47e-4,0.86041 0.05856,1.07176 0.417969,1.54297 0.474339,0.62189 0.795888,0.82096 1.748047,1.08399 1.583443,0.43741 3.448644,0.12971 4.433593,-0.73047 0.331182,-0.28923 0.644532,-0.23732 0.644532,0.10547 0,0.34332 0.659934,0.55676 1.574214,0.50976 l 0.89063,-0.0469 0,-0.59571 c 0,-0.49995 -0.05207,-0.60583 -0.32422,-0.64453 -0.59593,-0.0848 -0.65101,-0.33883 -0.69141,-3.18554 -0.04399,-3.095732 -0.14699,-3.507437 -1.064449,-4.263672 -0.7408,-0.610629 -1.438578,-0.794922 -3.017578,-0.794922 z m 6.517577,0.298829 0,4.630855 0,4.63086 0.89649,0 0.89453,0 0,-4.63086 0,-4.630855 -0.89453,0 -0.89649,0 z m -4.183592,4.611325 0,0.76367 c 0,1.20058 -0.549056,1.96882 -1.773438,2.48047 -1.106975,0.4626 -2.647014,0.18726 -3.287109,-0.58789 -0.295192,-0.35747 -0.113864,-1.30903 0.302734,-1.58984 0.472158,-0.31826 1.323895,-0.59466 1.845703,-0.59766 0.246466,-0.002 0.683161,-0.0642 0.970703,-0.13867 0.287542,-0.0745 0.842187,-0.17913 1.232422,-0.23243 l 0.708985,-0.0977 z"
     id="path4185"
     inkscape:connector-curvature="0" />
  <path
     style="fill:#0e1b65;fill-opacity:1"
     d="m 31.043676,84.966078 c -1.672346,-0.582799 -1.795179,-0.703113 -1.795179,-1.758383 0,-1.422575 0.732933,-1.71474 3.453533,-1.376668 2.083204,0.258871 3.672982,0.02384 4.601016,-0.680193 1.540997,-1.169047 5.083366,-4.88083 6.095691,-6.387222 0.290405,-0.432123 0.718079,-0.98636 0.950396,-1.231639 0.232317,-0.245276 0.564949,-0.650573 0.739193,-0.900653 0.548684,-0.787532 1.458738,-2.070461 1.952808,-2.752945 0.261776,-0.361602 0.875297,-1.264472 1.363379,-2.006379 0.488082,-0.741903 1.087207,-1.634034 1.331391,-1.982509 0.244185,-0.348477 0.766295,-1.156309 1.160235,-1.795181 0.393948,-0.638873 0.858295,-1.306694 1.031887,-1.484051 0.1736,-0.177354 0.418288,-0.557511 0.543758,-0.84479 0.203858,-0.46674 0.663008,-1.204825 1.720965,-2.766442 0.186848,-0.275799 0.654289,-1.00041 1.038759,-1.610244 0.38447,-0.609832 0.782916,-1.108786 0.885443,-1.108786 0.102518,0 0.327854,-0.308878 0.500748,-0.686394 0.172886,-0.377515 0.59897,-1.066546 0.946844,-1.531181 0.347874,-0.464636 0.866501,-1.177429 1.152493,-1.583983 0.286008,-0.406556 0.760276,-1.071829 1.053947,-1.478384 0.293663,-0.406555 0.731072,-1.04807 0.972014,-1.425585 0.240934,-0.377516 0.501834,-0.686391 0.579772,-0.686391 0.07794,0 0.519985,-0.488503 0.98233,-1.08556 0.462346,-0.59706 1.298372,-1.645908 1.857837,-2.330774 1.535528,-1.879708 1.435748,-1.979779 -1.911512,-1.91707 -1.696027,0.03177 -3.13722,0.169091 -3.689922,0.351579 -0.498802,0.164694 -1.447616,0.408129 -2.108467,0.540966 -0.660859,0.132839 -1.421165,0.406087 -1.689589,0.607219 -0.268416,0.201132 -0.7345,0.471894 -1.03575,0.601688 -0.301241,0.129795 -0.987744,0.751049 -1.525561,1.380565 -1.334951,1.562583 -1.581897,2.704948 -1.083421,5.012017 0.302219,1.398771 0.318616,1.789057 0.09758,2.32269 -0.242889,0.586397 -0.351249,0.641412 -1.263312,0.641412 -1.580897,0 -1.80403,-0.390246 -1.794489,-3.138395 0.007,-2.099294 0.05018,-2.324809 0.652374,-3.427516 0.580547,-1.063127 0.823033,-1.394402 1.714332,-2.342052 0.905804,-0.963073 2.769288,-2.217839 3.597301,-2.422225 0.316421,-0.07811 0.907952,-0.311013 1.314513,-0.517573 0.406552,-0.206559 1.496528,-0.478417 2.422174,-0.604131 0.925637,-0.125714 2.018584,-0.317927 2.428774,-0.427142 0.410183,-0.109214 2.154107,-0.297643 3.875381,-0.418732 2.644035,-0.186003 3.308827,-0.304951 4.284828,-0.766675 0.941453,-0.445379 1.213856,-0.497862 1.472017,-0.28361 0.372315,0.309 0.251825,1.509017 -0.338768,3.373905 -0.203741,0.643346 -0.437501,2.116449 -0.519465,3.273564 -0.08196,1.157113 -0.322006,2.911674 -0.53345,3.899025 -0.211444,0.987348 -0.446514,2.745569 -0.522396,3.907157 -0.07586,1.161586 -0.311985,2.824767 -0.524686,3.695958 -0.2127,0.871189 -0.449663,2.534372 -0.526569,3.695959 -0.07695,1.161588 -0.284348,3.014846 -0.460965,4.118355 -0.176625,1.103506 -0.441372,3.622039 -0.588344,5.596737 -0.289319,3.887349 -0.168139,4.785291 0.682229,5.055187 0.230029,0.07301 1.477323,0.161306 2.771754,0.196215 2.552725,0.06885 3.219169,0.316279 2.445304,0.907884 -0.34872,0.266589 -0.809188,0.29661 -2.63997,0.172121 -1.219666,-0.08293 -3.722802,-0.179646 -5.562528,-0.214917 -1.839717,-0.03527 -3.403565,-0.122749 -3.47522,-0.194401 -0.07167,-0.07165 -0.0047,-0.435524 0.149345,-0.808607 0.153789,-0.373082 0.400642,-1.218656 0.548568,-1.879053 0.147917,-0.660396 0.416961,-1.610786 0.597852,-2.111976 0.462299,-1.280836 0.843659,-5.63973 0.526811,-6.021501 -0.193752,-0.233464 -1.219596,-0.283427 -5.224566,-0.254449 -5.575466,0.04034 -6.005048,0.130638 -6.835132,1.436777 -0.259667,0.40857 -0.662194,1.044549 -0.89451,1.41329 -0.232317,0.368738 -0.682733,1.03786 -1.000939,1.486933 -0.885132,1.249186 -1.101781,1.572486 -1.856347,2.770075 -0.384237,0.609833 -0.768257,1.108789 -0.853385,1.108789 -0.08512,0 -0.35204,0.308875 -0.593145,0.686391 -0.902554,1.413153 -1.486491,2.191401 -2.337378,3.115167 -0.481474,0.522713 -1.156939,1.257429 -1.50102,1.632705 -0.781257,0.852087 -3.09203,2.761258 -4.058948,3.353521 -0.783289,0.479788 -3.456256,1.355299 -4.093845,1.340909 -0.214283,-0.0048 -0.959844,-0.207515 -1.656795,-0.450398 z m 31.55231,-20.197549 c 0.112369,-0.20997 0.267493,-1.23164 0.344702,-2.270375 0.07725,-1.038736 0.312954,-2.648921 0.523863,-3.57819 0.210893,-0.92927 0.448864,-2.533953 0.528834,-3.56596 0.07996,-1.032006 0.315452,-2.505109 0.52332,-3.273565 0.490114,-1.811856 0.696005,-3.302273 0.52892,-3.828721 -0.201058,-0.633478 -0.853897,-0.504081 -1.345864,0.26676 -0.240935,0.377515 -0.678343,1.019029 -0.972014,1.425585 -0.293664,0.406554 -0.770848,1.071828 -1.060408,1.478384 -0.28956,0.406554 -0.764751,1.071828 -1.055987,1.478384 -0.291235,0.406553 -0.763525,1.071827 -1.049525,1.478383 -0.285992,0.406554 -0.808017,1.119348 -1.160041,1.583983 -0.352024,0.464635 -0.786701,1.129906 -0.965948,1.478383 -0.179239,0.348475 -0.610186,1.013749 -0.957656,1.478384 -0.631865,0.844941 -0.847816,1.163515 -1.861087,2.74557 -0.297596,0.464634 -0.757568,1.113438 -1.022168,1.441789 -0.457754,0.568037 -0.642383,1.600079 -0.340296,1.902171 0.07741,0.07744 2.16495,0.140801 4.638914,0.140801 4.122397,0 4.51519,-0.03189 4.702441,-0.381766 z m 15.671441,13.683064 -0.718118,-0.663586 0.13183,-2.60114 c 0.09015,-1.778606 0.257782,-2.925253 0.530131,-3.626089 0.21906,-0.563718 0.463377,-1.682054 0.54292,-2.485192 0.07954,-0.803138 0.322689,-1.991124 0.540323,-2.639971 0.217626,-0.648848 0.501353,-1.797475 0.630492,-2.552506 0.129139,-0.755033 0.368739,-1.705423 0.532442,-2.111977 0.163702,-0.406556 0.403876,-1.395932 0.533737,-2.198616 0.129844,-0.802682 0.358942,-1.705551 0.509102,-2.006377 0.150159,-0.300825 0.384795,-1.245481 0.521404,-2.099233 0.136616,-0.85375 0.374215,-1.80414 0.527997,-2.111977 0.153782,-0.307835 0.391381,-1.258224 0.527997,-2.111977 0.136609,-0.853749 0.376915,-1.804139 0.534008,-2.111976 0.157102,-0.307833 0.391808,-1.061348 0.521567,-1.674475 0.129768,-0.613126 0.369593,-1.325918 0.532946,-1.583982 0.163361,-0.258064 0.36625,-0.801843 0.450866,-1.208397 0.08462,-0.406556 0.324969,-0.957492 0.534125,-1.224304 0.209148,-0.266813 0.443319,-0.772189 0.52038,-1.123061 0.0771,-0.35087 0.277763,-0.690764 0.446002,-0.755322 0.168225,-0.06456 0.489959,-0.478205 0.714946,-0.91922 0.655306,-1.284507 4.137476,-3.982245 5.593507,-4.333456 0.347688,-0.08387 1.005538,-0.339674 1.461903,-0.568463 0.666142,-0.33396 1.304616,-0.421744 3.238219,-0.445224 2.293343,-0.02785 2.427847,-0.0054 2.813427,0.469345 0.24398,0.300416 0.40493,0.824544 0.40493,1.318659 0,0.718897 -0.10813,0.898401 -0.876484,1.454987 -1.03817,0.752041 -1.289912,0.763936 -4.382633,0.207043 -2.549071,-0.459 -3.137593,-0.408858 -4.425578,0.377054 -0.82059,0.500717 -1.775276,2.23266 -2.122095,3.849786 -0.126269,0.588807 -0.363581,1.281702 -0.527338,1.539765 -0.163764,0.258064 -0.36573,1.086959 -0.448818,1.841992 -0.08309,0.755031 -0.317244,1.800459 -0.520349,2.323174 -0.203106,0.522714 -0.437509,1.508373 -0.520908,2.190353 -0.0834,0.681979 -0.292554,1.632368 -0.464797,2.111977 -0.172242,0.479607 -0.455512,1.674519 -0.629484,2.655362 -0.173979,0.980842 -0.441542,2.083033 -0.594579,2.449316 -0.153037,0.366279 -0.347052,1.179435 -0.431133,1.807009 -0.08408,0.627576 -0.329119,1.66376 -0.544527,2.302634 -0.215407,0.638871 -0.48359,1.747603 -0.595975,2.463846 -0.112385,0.716244 -0.341514,1.571593 -0.50918,1.90078 -0.167674,0.329184 -0.374184,1.261548 -0.458925,2.071924 -0.08473,0.810373 -0.329545,1.918593 -0.544014,2.462711 -0.214469,0.544117 -0.453061,1.686824 -0.5302,2.539349 -0.122632,1.355181 -0.08789,1.614671 0.276351,2.064122 l 0.416613,0.514077 1.131372,-0.486705 c 0.622255,-0.267686 1.623992,-0.879177 2.226072,-1.358865 0.602088,-0.479692 1.675441,-1.333438 2.385229,-1.897215 1.299892,-1.032481 1.920293,-1.158896 1.920293,-0.391283 0,0.537042 -2.05051,2.56019 -3.705901,3.656448 -0.749563,0.49639 -1.362844,0.975058 -1.362844,1.063702 0,0.08865 -0.403915,0.353336 -0.897589,0.588197 -0.493675,0.234859 -1.040148,0.517442 -1.214384,0.627961 -0.48674,0.308736 -2.342304,0.897934 -3.167967,1.005923 -0.609348,0.0797 -0.86533,-0.0199 -1.457311,-0.566907 z m 52.904173,0.04994 c -1.19176,-0.8293 -1.58087,-1.460578 -1.85225,-3.00497 -0.27779,-1.580977 -0.27837,-1.511841 0.0376,-4.43165 0.15233,-1.407484 0.38037,-2.448149 0.62477,-2.851168 0.21167,-0.349072 0.44921,-0.93909 0.52785,-1.31115 0.0786,-0.372061 0.31342,-0.894774 0.52172,-1.161586 0.20831,-0.266814 0.44885,-0.708751 0.53454,-0.982087 0.0857,-0.273337 0.36012,-0.815973 0.60985,-1.205858 0.24973,-0.389887 0.73761,-1.164158 1.08419,-1.720602 0.55948,-0.898263 1.26348,-1.732186 3.06582,-3.631625 0.81583,-0.859782 3.22762,-2.824407 4.03075,-3.283416 0.39665,-0.226702 1.08207,-0.526874 1.52313,-0.667047 0.44106,-0.140173 1.12624,-0.408756 1.52261,-0.596846 0.50732,-0.240741 1.62897,-0.381213 3.78879,-0.474495 2.91452,-0.125881 3.08435,-0.157305 3.3926,-0.627752 0.6277,-0.957995 1.91076,-0.367374 1.30216,0.599414 -0.16941,0.26913 -0.3737,0.964523 -0.45397,1.545318 -0.0803,0.580793 -0.31796,1.448895 -0.52819,1.929115 -0.21024,0.480221 -0.45136,1.288053 -0.53585,1.79518 -0.0845,0.507129 -0.31788,1.254689 -0.51867,1.661245 -0.20078,0.406554 -0.47698,1.437717 -0.61376,2.291469 -0.13679,0.853752 -0.37901,1.804241 -0.53826,2.112195 -0.15925,0.307957 -0.35833,1.130056 -0.44241,1.826886 -0.0841,0.696833 -0.29416,1.599603 -0.46685,2.006159 -0.41733,0.982517 -0.93373,5.803106 -0.69025,6.443509 0.23847,0.627225 0.91262,0.840445 1.53776,0.486368 1.29311,-0.732402 1.9804,-1.193007 3.01346,-2.019532 0.61703,-0.493676 1.27084,-0.897589 1.45292,-0.897589 0.61673,0 0.33782,0.815225 -0.56655,1.656001 -1.65702,1.540495 -3.99582,3.412743 -4.26317,3.412743 -0.1457,0 -0.42841,0.180666 -0.62825,0.40148 -0.19984,0.220815 -0.71023,0.466561 -1.13422,0.5461 -0.42399,0.07954 -1.03081,0.279028 -1.3485,0.44331 -0.80731,0.417475 -2.37337,0.388286 -2.73749,-0.05102 -0.41831,-0.504686 -0.30546,-2.175092 0.21597,-3.197198 0.51841,-1.016171 0.58331,-2.11544 0.13504,-2.287455 -0.18869,-0.07241 -0.66423,0.241038 -1.21818,0.802939 -1.35818,1.377675 -3.45642,3.076225 -4.00631,3.243142 -0.26682,0.08099 -0.6752,0.310886 -0.90751,0.510885 -0.6154,0.52978 -2.86875,1.278519 -3.82325,1.270384 -0.54385,-0.0047 -1.10285,-0.201677 -1.64767,-0.580792 z m 6.84369,-3.634188 c 0.2904,-0.202914 0.7269,-0.430589 0.97001,-0.505939 0.60058,-0.186161 2.77599,-2.372089 3.27577,-3.291627 0.22275,-0.409827 0.49127,-0.887699 0.59673,-1.061936 0.6255,-1.033489 1.24996,-2.555415 1.3865,-3.379162 0.0866,-0.522716 0.32317,-1.283027 0.52559,-1.689582 0.20242,-0.406555 0.43402,-1.254099 0.51465,-1.883428 0.0806,-0.629328 0.29111,-1.48468 0.46769,-1.900778 0.17659,-0.416099 0.45286,-1.374297 0.61391,-2.129328 0.16108,-0.755033 0.35408,-1.629764 0.42891,-1.943843 0.11853,-0.497433 0.0583,-0.592734 -0.46749,-0.739192 -0.33195,-0.09247 -1.50642,-0.166158 -2.60993,-0.163738 -1.83064,0.004 -2.12338,0.06335 -3.3423,0.677497 -1.41111,0.710988 -3.16826,2.368322 -3.85948,3.640228 -0.22317,0.410642 -0.49749,0.889181 -0.60962,1.06342 -0.11213,0.174236 -0.34682,0.649432 -0.52154,1.055988 -0.17472,0.406554 -0.40653,0.88175 -0.51512,1.055989 -0.31965,0.512857 -1.08437,2.968451 -1.31542,4.223952 -0.11757,0.638872 -0.18358,2.167702 -0.14669,3.3974 0.0661,2.203126 0.0776,2.247896 0.7889,3.062366 0.39701,0.454605 0.91972,0.89042 1.1616,0.968482 0.64572,0.208394 2.05112,-0.03317 2.65733,-0.456769 z m 21.16781,3.759614 c -1.8633,-0.416588 -2.01308,-0.492585 -3.0866,-1.566105 -0.89982,-0.899819 -1.15199,-1.305116 -1.24542,-2.001667 -0.30005,-2.237049 0.34458,-3.055646 2.27989,-2.895156 0.63734,0.05285 1.22922,0.166509 1.31528,0.252565 0.0861,0.08606 0.21132,0.902967 0.27836,1.815356 0.11368,1.547118 0.17075,1.704777 0.84697,2.339958 1.29189,1.213493 3.56486,1.318168 5.58262,0.257093 2.11038,-1.10978 2.87719,-2.696878 2.42437,-5.01786 -0.22046,-1.130033 -0.442,-1.494647 -2.16166,-3.557759 -2.18823,-2.625282 -2.60092,-3.180076 -3.56509,-4.792668 -0.66693,-1.115482 -0.69481,-1.250824 -0.70244,-3.40979 -0.006,-1.784796 0.063,-2.328954 0.33619,-2.63997 0.18927,-0.215476 0.50437,-0.707959 0.70022,-1.094414 0.41417,-0.817248 1.09974,-1.473227 2.47475,-2.367916 1.47482,-0.959644 4.31065,-1.351105 6.72914,-0.928894 1.69474,0.295863 2.27435,0.585871 3.11001,1.556102 0.29692,0.344729 0.35101,1.873543 0.0813,2.29882 -0.0969,0.152821 -0.44649,0.418087 -0.77685,0.589479 -0.88295,0.458082 -1.61626,0.08163 -3.40512,-1.748091 -1.47496,-1.508645 -1.5399,-1.548023 -2.55316,-1.548023 -0.81103,0 -1.20518,0.127739 -1.79208,0.580792 -0.87423,0.674855 -1.85001,2.452619 -1.85001,3.370501 0,1.238289 1.43493,3.52002 3.60723,5.735977 1.00801,1.028269 2.22363,2.658881 2.92987,3.93007 0.66438,1.19585 0.70064,1.371206 0.68911,3.332208 -0.0119,2.013292 -0.0329,2.101159 -0.76953,3.210935 -1.4917,2.247337 -3.2617,3.57651 -5.50629,4.134935 -2.46626,0.613567 -3.79534,0.649966 -5.9711,0.163522 z m 32.32354,0.04567 c -0.87767,-0.535136 -1.38252,-1.721102 -1.26109,-2.962449 0.30218,-3.089012 0.65356,-5.141263 1.109,-6.477005 0.28388,-0.832623 0.51615,-1.667998 0.51615,-1.856393 0,-0.188395 0.17869,-0.695145 0.39709,-1.126113 0.21839,-0.430967 0.46513,-1.211251 0.54829,-1.733965 0.0832,-0.522716 0.30056,-1.185199 0.48311,-1.472186 0.31377,-0.493295 1.03477,-3.425036 1.25607,-5.107489 0.0778,-0.591717 -0.002,-0.874994 -0.34113,-1.214388 -0.57654,-0.576535 -1.88371,-0.593327 -2.59561,-0.03335 -0.28619,0.225118 -0.78006,0.474486 -1.09749,0.554159 -0.58428,0.146641 -4.92146,4.306143 -5.72468,5.490151 -0.70473,1.038804 -1.38989,2.84925 -1.79382,4.739864 -0.21095,0.987349 -0.47599,2.032775 -0.58899,2.323174 -0.11299,0.290397 -0.27622,1.045346 -0.36273,1.677665 -0.0865,0.632318 -0.33432,1.664219 -0.55068,2.293113 -0.21637,0.628893 -0.45637,1.758023 -0.53333,2.509174 -0.19183,1.872394 -0.35918,1.996986 -2.58292,1.923044 -2.08727,-0.06941 -1.94337,0.18868 -1.41578,-2.539211 0.17377,-0.898553 0.45187,-1.89656 0.61799,-2.217797 0.16612,-0.321232 0.37178,-1.154195 0.45704,-1.851028 0.0853,-0.696831 0.32327,-1.698151 0.52894,-2.225157 0.20566,-0.527 0.44181,-1.524909 0.52478,-2.217575 0.083,-0.692663 0.32313,-1.68706 0.53368,-2.209773 0.21055,-0.522717 0.44655,-1.517236 0.52442,-2.210043 0.0779,-0.692811 0.31572,-1.833279 0.52856,-2.534372 0.21284,-0.701098 0.4549,-1.749915 0.53791,-2.330707 0.083,-0.580795 0.31936,-1.547096 0.52519,-2.147336 0.20583,-0.60024 0.44203,-1.645669 0.52486,-2.323175 0.0828,-0.677506 0.31582,-1.659502 0.51773,-2.182216 0.20192,-0.522715 0.43567,-1.520623 0.51945,-2.217575 0.0838,-0.696952 0.32547,-1.552304 0.53709,-1.900779 0.21162,-0.348478 0.45159,-1.086144 0.53326,-1.639259 0.0817,-0.553115 0.3276,-1.233379 0.54653,-1.511695 0.21892,-0.278317 0.39805,-0.590942 0.39805,-0.694722 0,-0.958351 4.50309,-5.975018 5.36333,-5.975018 0.158,0 0.40535,-0.142258 0.54964,-0.316129 0.14431,-0.173872 0.718,-0.451434 1.27486,-0.616808 0.55688,-0.165374 1.24658,-0.454054 1.53268,-0.641511 0.65621,-0.429968 4.42546,-0.686176 5.26121,-0.357624 0.31387,0.123391 0.72528,0.523305 0.91423,0.888699 0.28855,0.557997 0.30132,0.766316 0.0798,1.301239 -0.58417,1.410304 -1.98621,1.702729 -5.24029,1.09297 -2.26547,-0.42451 -3.33153,-0.3117 -4.41514,0.467208 -0.97807,0.703052 -2.0222,2.742794 -2.26488,4.424549 -0.0829,0.57405 -0.28845,1.376364 -0.45688,1.782921 -0.16844,0.406553 -0.44853,1.68344 -0.62242,2.83752 -0.17389,1.154082 -0.44226,2.342166 -0.59637,2.64019 -0.15411,0.298024 -0.34899,1.111997 -0.43307,1.808828 -0.0841,0.696832 -0.29084,1.599603 -0.45946,2.006158 -0.16863,0.406555 -0.43568,1.592747 -0.59344,2.635984 -0.41213,2.725207 -0.0345,2.986968 1.79583,1.244744 1.68913,-1.607849 3.54644,-2.991116 5.53888,-4.12519 0.33826,-0.192531 0.77477,-0.493368 0.97002,-0.668522 0.19527,-0.175153 0.73518,-0.388936 1.19981,-0.475071 0.46464,-0.08614 1.15089,-0.284371 1.52501,-0.440522 0.61063,-0.254863 0.77789,-0.236457 1.63494,0.17993 0.78667,0.382194 0.97872,0.591795 1.09109,1.190778 0.21724,1.15798 -0.092,4.112853 -0.53662,5.127895 -0.22327,0.509693 -0.47381,1.401906 -0.55675,1.982701 -0.0829,0.580792 -0.31669,1.388624 -0.51943,1.79518 -0.20274,0.406554 -0.47539,1.242895 -0.60587,1.858533 -0.1305,0.615636 -0.37166,1.379233 -0.53592,1.69688 -0.16426,0.317646 -0.36717,0.954409 -0.45091,1.415031 -0.0838,0.460618 -0.31716,1.170128 -0.51871,1.576684 -0.20233,0.40814 -0.46755,1.717662 -0.5922,2.92398 -0.32237,3.119799 0.0397,3.819285 1.59826,3.087264 0.74406,-0.349475 2.8032,-1.908959 3.75448,-2.843444 0.48674,-0.47814 0.93078,-0.550729 0.96798,-0.158235 0.0501,0.528418 -0.0704,0.90583 -0.41368,1.295828 -0.62397,0.708886 -3.78769,3.285089 -4.34752,3.540164 -0.29907,0.136264 -0.54376,0.319898 -0.54376,0.408079 0,0.08818 -0.47408,0.317785 -1.0535,0.51024 -0.57943,0.192456 -1.10776,0.437688 -1.17405,0.544967 -0.20456,0.330969 -1.22268,0.214524 -1.93807,-0.221664 z m 13.58415,-0.171096 c -1.19177,-0.8293 -1.58088,-1.460578 -1.85225,-3.00497 -0.27779,-1.580977 -0.27838,-1.511842 0.0376,-4.43165 0.15233,-1.407485 0.38037,-2.448149 0.62476,-2.851168 0.21169,-0.349072 0.44922,-0.93909 0.52786,-1.31115 0.0786,-0.372061 0.31342,-0.894775 0.52172,-1.161586 0.20831,-0.266815 0.44885,-0.708751 0.53454,-0.982087 0.0857,-0.273337 0.36012,-0.815973 0.60985,-1.205858 0.24972,-0.389888 0.73761,-1.164158 1.08419,-1.720602 0.55948,-0.898263 1.26347,-1.732186 3.06581,-3.631625 0.81584,-0.859782 3.22763,-2.824407 4.03076,-3.283417 0.39665,-0.226701 1.08207,-0.526873 1.52313,-0.667046 0.44106,-0.140173 1.12624,-0.408756 1.5226,-0.596846 0.50733,-0.240741 1.62898,-0.381213 3.78879,-0.474496 2.91453,-0.12588 3.08436,-0.157304 3.39261,-0.627752 0.6277,-0.957994 1.91076,-0.367373 1.30217,0.599414 -0.16942,0.269131 -0.37371,0.964524 -0.45399,1.545318 -0.0803,0.580793 -0.31795,1.448896 -0.52819,1.929115 -0.21023,0.480222 -0.45136,1.288054 -0.53584,1.795181 -0.0845,0.507128 -0.31789,1.254689 -0.51867,1.661245 -0.20079,0.406554 -0.47698,1.437716 -0.61377,2.291469 -0.13679,0.853752 -0.379,1.804241 -0.53825,2.112195 -0.15925,0.307956 -0.35834,1.130055 -0.44241,1.826886 -0.0841,0.696832 -0.29416,1.599603 -0.46685,2.006159 -0.41734,0.982517 -0.93373,5.803106 -0.69025,6.443509 0.23847,0.627224 0.91261,0.840445 1.53776,0.486368 1.29311,-0.732402 1.9804,-1.193007 3.01346,-2.019532 1.19891,-0.959223 1.78396,-1.129774 1.78396,-0.520056 0,0.578026 -4.51863,4.691211 -5.15363,4.691211 -0.14963,0 -0.43555,0.180665 -0.63538,0.40148 -0.19984,0.220815 -0.71024,0.466561 -1.13423,0.5461 -0.42399,0.07954 -1.03081,0.279028 -1.34849,0.44331 -0.80731,0.417475 -2.37337,0.388286 -2.7375,-0.05102 -0.4183,-0.504686 -0.30546,-2.175092 0.21598,-3.197199 0.51841,-1.01617 0.58331,-2.115439 0.13504,-2.287454 -0.18869,-0.07241 -0.66423,0.241038 -1.21818,0.802939 -1.35817,1.377675 -3.45642,3.076225 -4.00632,3.243142 -0.26681,0.08099 -0.67519,0.310885 -0.90751,0.510885 -0.61539,0.52978 -2.86874,1.278519 -3.82324,1.270384 -0.54386,-0.0047 -1.10285,-0.201677 -1.64767,-0.580793 z m 6.84369,-3.634188 c 0.2904,-0.202914 0.7269,-0.430589 0.97,-0.505939 0.60058,-0.186161 2.77599,-2.37209 3.27577,-3.291627 0.22275,-0.409827 0.49128,-0.887699 0.59674,-1.061936 0.6255,-1.033489 1.24995,-2.555415 1.3865,-3.379162 0.0866,-0.522716 0.32316,-1.283028 0.52558,-1.689582 0.20243,-0.406555 0.43402,-1.254099 0.51465,-1.883428 0.0806,-0.629328 0.29111,-1.48468 0.4677,-1.900779 0.17659,-0.416098 0.45285,-1.374296 0.61391,-2.129327 0.16107,-0.755034 0.35407,-1.629764 0.42891,-1.943843 0.11852,-0.497434 0.0582,-0.592735 -0.46749,-0.739193 -0.33196,-0.09247 -1.50643,-0.166157 -2.60993,-0.163738 -1.83065,0.004 -2.12339,0.06335 -3.3423,0.677498 -1.41111,0.710987 -3.16826,2.368322 -3.85949,3.640228 -0.22316,0.410642 -0.49749,0.889181 -0.60962,1.06342 -0.11212,0.174236 -0.34681,0.649432 -0.52154,1.055988 -0.17471,0.406553 -0.40652,0.88175 -0.51511,1.055989 -0.31965,0.512857 -1.08437,2.968451 -1.31542,4.223952 -0.11757,0.638872 -0.18358,2.167702 -0.14669,3.397399 0.0661,2.203126 0.0776,2.247896 0.7889,3.062367 0.39701,0.454605 0.91972,0.89042 1.16159,0.968481 0.64573,0.208395 2.05112,-0.03317 2.65734,-0.456768 z m 20.32132,3.72431 c -1.01846,-0.436966 -1.17148,-0.596553 -1.76274,-1.838391 l -0.64745,-1.359881 0.0857,-3.273563 c 0.0638,-2.435741 0.17075,-3.435726 0.41798,-3.907157 0.18275,-0.348477 0.3996,-1.130755 0.48191,-1.738399 0.0823,-0.607643 0.32322,-1.325488 0.53538,-1.595212 0.21217,-0.269728 0.45463,-0.857461 0.5388,-1.306079 0.0841,-0.448614 0.37709,-1.145855 0.65095,-1.54942 0.27385,-0.403566 0.49793,-0.851418 0.49793,-0.995224 0,-0.143806 0.14806,-0.384334 0.32901,-0.534509 0.18096,-0.150174 0.45773,-0.581156 0.61507,-0.957738 0.34039,-0.814669 0.56031,-1.077814 2.72276,-3.258 1.81571,-1.83058 3.06332,-2.624214 5.28478,-3.361748 1.04842,-0.348083 1.69655,-0.445385 2.32317,-0.348777 1.59224,0.245485 2.9181,0.796925 3.52865,1.467604 0.56775,0.623636 0.60195,0.76926 0.60781,2.585947 0.005,1.61127 -0.0627,2.012636 -0.41621,2.462085 -0.23232,0.295344 -0.42239,0.630923 -0.42239,0.745734 0,0.322388 -3.34058,3.389217 -4.19948,3.855354 -0.7563,0.410449 -0.90886,0.499821 -2.35042,1.376808 -0.40807,0.248261 -0.97831,0.524919 -1.26718,0.614801 -0.28888,0.08988 -0.77751,0.341025 -1.08584,0.558105 -0.30832,0.217077 -0.68848,0.395269 -0.84479,0.395986 -0.1563,6.65e-4 -0.5693,0.156768 -0.91778,0.346783 -0.34848,0.190012 -0.98569,0.522216 -1.41607,0.738223 -0.9241,0.463824 -1.12011,1.102834 -1.09203,3.560042 0.0343,2.997592 0.85937,4.12359 3.01282,4.111621 0.98617,-0.0055 1.51835,-0.162675 2.86006,-0.844791 2.87191,-1.460041 3.07675,-1.576859 3.07675,-1.754542 0,-0.241912 2.06835,-1.559135 2.49898,-1.591455 0.24026,-0.01804 0.37451,0.169366 0.42242,0.589626 0.0765,0.671007 -0.42329,1.231932 -2.36781,2.657506 -0.55456,0.406554 -1.28942,1.000548 -1.63302,1.319984 -0.34359,0.319437 -0.75235,0.580796 -0.90836,0.580796 -0.15601,0 -0.4029,0.143663 -0.54863,0.319254 -0.14573,0.175592 -0.65632,0.50586 -1.13464,0.733931 -0.47832,0.228073 -1.01224,0.504872 -1.18648,0.615109 -0.49332,0.312109 -2.94847,0.897458 -4.11836,0.981883 -0.75976,0.05483 -1.36886,-0.05803 -2.17123,-0.402296 z m 5.01951,-13.194625 c 0.29647,-0.219199 0.77482,-0.47035 1.06295,-0.558111 0.28816,-0.08776 0.714,-0.327604 0.94632,-0.532983 0.23232,-0.205378 0.72219,-0.524833 1.08859,-0.709896 0.86059,-0.434662 2.98799,-2.546514 3.6521,-3.625401 0.39789,-0.646404 0.51933,-1.142253 0.52799,-2.155941 0.0106,-1.245063 -0.0316,-1.359248 -0.7775,-2.105225 -0.72411,-0.724116 -0.8828,-0.787399 -1.93643,-0.77217 -1.42113,0.02055 -2.31287,0.51035 -3.23177,1.775117 -0.37578,0.517197 -0.87038,1.186057 -1.09913,1.486352 -0.22875,0.300294 -0.48266,0.82301 -0.56424,1.161586 -0.0816,0.338577 -0.31627,0.951248 -0.52154,1.361485 -0.20525,0.410242 -0.47322,1.286987 -0.59547,1.948322 -0.12226,0.661337 -0.37339,1.494665 -0.5581,1.851835 -0.19101,0.369383 -0.27617,0.837377 -0.19746,1.085331 0.11689,0.368295 0.25674,0.416712 0.90149,0.312083 0.41973,-0.06811 1.00571,-0.303185 1.3022,-0.522384 z M 95.843043,78.182499 c -0.215827,-0.349116 0.394716,-0.728686 1.359904,-0.845444 1.522908,-0.184218 3.156143,-1.181365 3.925963,-2.396949 0.92884,-1.466675 1.60753,-3.133897 1.93692,-4.758119 0.15725,-0.775407 0.42247,-1.678276 0.58937,-2.006377 0.16691,-0.328099 0.37246,-1.163266 0.45679,-1.855929 0.0843,-0.692665 0.32314,-1.690575 0.53071,-2.217575 0.20756,-0.527005 0.48704,-1.665747 0.62107,-2.530535 0.13403,-0.864791 0.34165,-1.690379 0.46138,-1.834643 0.11972,-0.144263 0.35162,-1.02954 0.51533,-1.96728 0.16371,-0.937743 0.42983,-1.965414 0.59138,-2.283715 0.16155,-0.318297 0.35707,-1.05392 0.4345,-1.634713 0.0774,-0.580795 0.34383,-1.69485 0.592,-2.47568 0.54067,-1.701066 0.37712,-2.305492 -0.70805,-2.616715 -1.11965,-0.321111 -1.00579,-1.33841 0.16451,-1.4699 3.48317,-0.391348 5.40466,-0.539639 5.6705,-0.437627 0.41343,0.158649 0.41009,0.969167 -0.006,1.563852 -0.17946,0.256219 -0.46444,1.203996 -0.63329,2.106171 -0.16884,0.902175 -0.44391,1.972954 -0.61127,2.37951 -0.16735,0.406553 -0.41052,1.395931 -0.54038,2.198613 -0.12984,0.802683 -0.37918,1.736138 -0.55408,2.074347 -0.5035,0.973663 -0.10345,1.274257 1.5244,1.145441 0.72364,-0.05726 1.50193,-0.203776 1.72954,-0.325593 0.22761,-0.121812 0.87542,-0.324922 1.43958,-0.451355 1.12155,-0.251343 2.80859,-1.202588 3.73821,-2.107802 0.71289,-0.694177 2.0479,-2.725299 2.0479,-3.115739 0,-0.153741 0.19008,-0.652116 0.42239,-1.107493 0.68416,-1.341062 0.5823,-3.178752 -0.26497,-4.780575 -0.99583,-1.882659 -2.17938,-2.709081 -4.84103,-3.380275 -1.95946,-0.494121 -2.24582,-0.515777 -3.94181,-0.298094 -3.65941,0.469688 -7.42476,1.48484 -8.69279,2.343605 -0.29039,0.196672 -0.76559,0.428496 -1.05599,0.515165 -0.2904,0.08667 -0.71807,0.318542 -0.95039,0.515271 -0.23231,0.196727 -0.98,0.73198 -1.66151,1.189451 -2.232471,1.498548 -4.62157,4.095424 -5.699523,6.195188 -0.21533,0.419446 -0.513625,0.905187 -0.662884,1.079426 -0.14926,0.174236 -0.33973,0.649432 -0.423268,1.055989 -0.08353,0.406553 -0.344283,1.055877 -0.579447,1.442938 -0.365311,0.601282 -0.431179,1.093282 -0.452409,3.379162 -0.02381,2.559479 0.0016,2.725752 0.581727,3.837004 0.626955,1.200593 1.463826,2.074605 2.561388,2.675053 0.690823,0.377936 1.001287,0.712352 1.489493,1.604422 0.302258,0.55229 0.287908,0.622923 -0.268276,1.319977 -0.683889,0.857102 -1.096708,0.909691 -2.146684,0.273453 -1.862739,-1.128739 -3.086174,-3.025145 -3.856944,-5.978504 -0.318508,-1.220475 -0.11866,-5.754422 0.288591,-6.547128 0.179037,-0.348477 0.392149,-1.034711 0.4736,-1.524966 0.08144,-0.490256 0.317213,-1.108008 0.523918,-1.372785 0.206704,-0.264776 0.444683,-0.701104 0.528842,-0.969615 0.661899,-2.111869 5.027937,-6.801601 7.901876,-8.487697 0.49497,-0.290399 1.23086,-0.741832 1.63531,-1.00319 0.40444,-0.261359 0.85069,-0.475194 0.99166,-0.475194 0.14096,0 0.68775,-0.229686 1.2151,-0.510415 0.52735,-0.280728 1.33442,-0.578545 1.7935,-0.661819 0.45908,-0.08327 1.07229,-0.26856 1.36268,-0.411749 1.99012,-0.981291 11.61276,-1.062278 13.19985,-0.111093 0.34848,0.208851 0.87119,0.451087 1.1616,0.538305 0.75463,0.226653 3.15399,2.143966 3.16551,2.529556 0.003,0.116157 0.24007,0.686391 0.52577,1.267186 0.64517,1.311559 0.69625,2.998504 0.12863,4.248452 -0.21712,0.478106 -0.45793,1.156892 -0.53514,1.508409 -0.30748,1.399953 -4.4205,4.889664 -6.14413,5.213018 -0.77487,0.145367 -0.99294,0.646727 -0.36142,0.830927 0.20329,0.05929 0.84479,0.171839 1.42559,0.25011 1.22536,0.16513 2.74238,1.08675 4.03491,2.451279 1.2019,1.268846 1.88221,3.410942 1.56508,4.92799 -0.1214,0.580793 -0.31412,1.650988 -0.42825,2.378212 -0.40931,2.608082 -2.85422,5.744955 -5.99532,7.692145 -0.65009,0.402995 -3.05345,1.439916 -3.33741,1.439916 -0.17933,0 -0.78957,0.209915 -1.3561,0.466486 -1.00809,0.456546 -1.21607,0.466672 -9.76208,0.475194 -4.802614,0.0048 -8.778671,-0.06674 -8.835682,-0.158941 z m 16.701867,-1.545691 c 0.94086,-0.187305 1.90073,-0.50902 2.13304,-0.714918 0.23232,-0.205898 0.65058,-0.443761 0.92946,-0.528581 0.63716,-0.193787 2.85736,-2.423499 3.31718,-3.331388 0.18978,-0.374712 0.46819,-0.823855 0.61871,-0.998091 0.29007,-0.335804 0.60793,-1.71242 0.94275,-4.082933 0.17608,-1.246545 0.14466,-1.620269 -0.23085,-2.745569 -0.46396,-1.390417 -0.91119,-1.978435 -2.42371,-3.186693 -1.20066,-0.959141 -6.6197,-1.805339 -7.40569,-1.156421 -0.5539,0.457297 -1.0717,1.833644 -1.33025,3.535974 -0.12961,0.853301 -0.36673,1.804944 -0.52694,2.114759 -0.16022,0.309815 -0.35855,1.037243 -0.44074,1.616506 -0.0822,0.579265 -0.32545,1.461197 -0.54057,1.959849 -0.21511,0.498654 -0.45706,1.25817 -0.53767,1.68782 -0.0806,0.429649 -0.36926,1.200039 -0.64146,1.711984 -0.2722,0.511944 -0.49492,1.069253 -0.49492,1.238459 0,0.16921 -0.2376,0.590022 -0.52799,0.93514 -0.57795,0.686856 -0.67373,1.268876 -0.264,1.604204 0.83453,0.682992 4.79044,0.864115 7.42365,0.339899 z m 140.02223,1.307447 c -0.0634,-0.16516 -0.0225,-0.474038 0.0909,-0.686391 0.11334,-0.212356 0.27548,-0.956332 0.3603,-1.653285 0.0848,-0.696952 0.31975,-1.599824 0.52212,-2.006378 0.20236,-0.406555 0.43707,-1.305915 0.52158,-1.998578 0.0845,-0.692665 0.33013,-1.707119 0.54584,-2.254346 0.21569,-0.547226 0.45714,-1.501123 0.53654,-2.119773 0.0794,-0.618653 0.31188,-1.556005 0.51657,-2.08301 0.20471,-0.527001 0.44153,-1.524911 0.52626,-2.217576 0.0847,-0.692663 0.32026,-1.68706 0.52341,-2.209774 0.50521,-1.299993 0.75715,-3.923518 0.41621,-4.33431 -0.44683,-0.538389 -1.79208,-0.304422 -2.42482,0.421724 -0.59866,0.687023 -2.84625,2.434202 -3.13139,2.434202 -0.94779,0 -0.49074,-0.609329 2.49779,-3.329939 0.53397,-0.486106 2.51334,-1.738805 2.74743,-1.738805 0.0968,0 0.33606,-0.144785 0.53161,-0.321743 0.45264,-0.40964 3.27253,-1.19801 3.98616,-1.114437 0.87878,0.102909 1.02473,0.923578 0.46105,2.592348 -0.5993,1.774184 -0.70529,3.971286 -0.19663,4.075376 0.22896,0.04686 0.62823,-0.340021 1.16159,-1.125582 0.89666,-1.320642 1.25122,-1.732942 3.18995,-3.70938 2.45232,-2.500002 3.7064,-3.353348 4.92805,-3.353348 1.09861,0 1.88179,0.728428 1.88179,1.750232 0,0.570578 -0.15859,0.840779 -0.79199,1.349336 -0.4356,0.349739 -1.17215,0.706261 -1.63679,0.792269 -0.46463,0.08601 -1.1299,0.326272 -1.47838,0.533917 -0.34847,0.20764 -0.87119,0.433323 -1.16159,0.501515 -0.29039,0.0682 -0.75003,0.294239 -1.02139,0.502326 -1.53351,1.175915 -2.71107,2.264773 -3.52966,3.263807 -0.50802,0.620009 -1.09369,1.316186 -1.30148,1.547064 -0.20779,0.230876 -0.54209,0.753589 -0.74287,1.161587 -0.20081,0.407996 -0.45378,0.88437 -0.56219,1.058609 -0.54092,0.869449 -1.29048,2.762706 -1.49059,3.764974 -0.12353,0.618752 -0.31741,1.298412 -0.43085,1.510351 -0.11343,0.211941 -0.3516,1.288693 -0.52926,2.392778 -0.17766,1.10409 -0.45518,2.325211 -0.61669,2.713603 -0.16153,0.388394 -0.36053,1.276405 -0.44225,1.973357 -0.24155,2.060153 -0.42214,2.217575 -2.54411,2.217575 -1.35857,0 -1.82506,-0.07326 -1.91218,-0.300295 z"
     id="path4181"
     inkscape:connector-curvature="0" />
  <path
     style="fill:#0e1b65;fill-opacity:1"
     d="m 154.13086,94.246094 -1.01563,0.859375 c -0.55922,0.472169 -2.14902,1.84853 -3.5332,3.060547 -1.38419,1.212007 -2.57604,2.205074 -2.64844,2.205074 -0.0724,0 -0.14957,-1.361747 -0.17187,-3.025387 l -0.041,-3.025391 -0.82226,0 -0.82032,0 -0.0391,6.312498 -0.0391,6.31055 0.89844,0 0.89648,0 0,-2.0625 0,-2.0625 0.48633,-0.45117 c 0.26701,-0.24883 0.81174,-0.71271 1.21094,-1.03125 l 0.72656,-0.58008 0.54297,0.59766 c 0.29912,0.32915 0.71257,0.79833 0.91797,1.04101 l 1.19336,1.41211 c 0.45185,0.53395 0.85623,1.00382 0.89843,1.04492 0.0423,0.0411 0.4719,0.52748 0.95313,1.08203 l 0.875,1.00977 1.10156,0 c 0.60614,0 1.10156,-0.0439 1.10156,-0.0977 0,-0.10252 -0.6044,-0.92807 -0.93164,-1.27148 -0.10463,-0.1098 -0.62608,-0.70415 -1.1582,-1.32031 -0.53212,-0.61616 -1.23661,-1.42535 -1.56641,-1.79883 -1.27546,-1.4443 -2.2476,-2.583187 -2.3457,-2.748049 -0.13859,-0.232979 -0.0661,-0.316568 1.22266,-1.427734 0.61617,-0.531247 1.42536,-1.236599 1.79883,-1.566406 0.37347,-0.329814 1.09576,-0.95784 1.60546,-1.396485 0.5097,-0.438652 0.92774,-0.858773 0.92774,-0.933594 0,-0.07482 -0.49985,-0.136718 -1.11133,-0.136718 l -1.11328,0 z m 41.50976,0 0,6.347656 0,6.34961 0.89649,0 0.89648,0 0,-6.34961 0,-6.347656 -0.89648,0 -0.89649,0 z m 23.59961,0 0,2.191406 0,2.193359 -0.33593,-0.316406 c -1.32262,-1.241633 -4.22196,-1.250507 -5.9668,-0.01758 -0.65363,0.461853 -0.91646,0.792857 -1.41406,1.775397 -0.36954,0.72983 -0.41511,0.97962 -0.41211,2.24023 0.003,1.20331 0.0627,1.54566 0.38867,2.25391 0.43599,0.94733 1.22786,1.80963 1.94922,2.12304 0.26912,0.11693 0.65789,0.28525 0.86328,0.37305 1.07139,0.45781 3.73645,0.0216 4.4082,-0.7207 0.37323,-0.41241 0.51953,-0.36953 0.51953,0.15234 0,0.44812 2.6e-4,0.44922 0.89649,0.44922 l 0.89648,0 0,-6.34961 0,-6.347658 -0.89648,0 -0.89649,0 z m -56.17578,3.136718 c -1.13175,10e-7 -2.46117,0.411158 -2.90039,0.896485 -0.31891,0.352387 -0.52344,0.261683 -0.52344,-0.232422 10e-6,-0.342349 -0.0489,-0.365234 -0.82031,-0.365234 l -0.82226,0 0,4.630859 0,4.63086 0.89648,0 0.89453,0 0,-2.90625 c 0,-2.95205 0.0522,-3.28632 0.62696,-4.134766 0.60658,-0.895479 2.5158,-1.307402 3.46875,-0.748047 1.04023,0.610589 1.27925,1.609693 1.28125,5.361323 l 0.002,2.42774 0.83398,0 0.83203,0 -0.0488,-3.62305 c -0.0544,-4.021534 -0.0769,-4.12846 -1.0918,-5.019529 -0.77046,-0.676466 -1.46247,-0.917969 -2.62891,-0.917969 z m 11.00782,0 c -1.63735,0 -2.69017,0.39418 -3.67969,1.378907 -0.98166,0.976888 -1.38172,2.006531 -1.38672,3.572261 -0.005,1.38934 0.14491,1.91699 0.82422,2.92383 0.52673,0.78069 1.22939,1.32828 2.16406,1.6836 0.8245,0.31341 2.57769,0.38499 3.3457,0.13671 2.4133,-0.7801 3.56336,-2.32567 3.56836,-4.79687 0.006,-2.981188 -1.8866,-4.898438 -4.83593,-4.898438 z m 30.45898,0 c -2.1959,10e-7 -3.83462,0.963861 -4.70117,2.763668 -0.29902,0.62111 -0.36114,0.98591 -0.36914,2.16602 -0.008,1.24721 0.0382,1.51816 0.39062,2.24023 0.61697,1.26423 1.30273,1.88732 2.63477,2.39454 0.80439,0.3063 2.70306,0.37913 3.47656,0.13281 1.31709,-0.41941 2.09728,-0.97363 2.6875,-1.9043 0.61063,-0.96287 0.57575,-1.16044 -0.23437,-1.27148 -0.737,-0.10102 -1.125,-0.0103 -1.125,0.26172 0,0.29206 -1.08115,1.23026 -1.62696,1.4121 -1.90911,0.63606 -4.08351,-0.47732 -4.4082,-2.25781 l -0.10156,-0.56054 4.11328,0 4.11523,0 0,-0.78516 c 0,-0.92135 -0.41815,-2.163011 -0.97461,-2.892579 -0.83236,-1.091257 -2.22045,-1.699219 -3.87695,-1.699219 z m 23.32031,0 c -2.00514,0 -3.58337,0.878309 -4.38672,2.44336 -0.3358,0.654278 -0.39529,0.967158 -0.40429,2.113278 -0.0172,2.1326 0.74384,3.51101 2.39843,4.34766 0.77865,0.39369 0.98943,0.43078 2.35938,0.42578 1.5844,-0.006 2.16071,-0.19693 3.03711,-1.00586 0.36929,-0.34091 0.37504,-0.32868 0.33594,0.63281 -0.0366,0.90075 -0.46828,1.68836 -1.15235,2.10547 -0.48788,0.29756 -0.76452,0.34557 -1.99609,0.34571 -1.68589,2.3e-4 -2.38321,-0.30428 -2.70117,-1.1836 -0.18306,-0.5068 -0.20091,-0.51562 -1.05274,-0.51562 -0.97988,0 -1.04947,0.11991 -0.64258,1.09375 0.37328,0.89339 1.36155,1.64633 2.54102,1.93554 0.59028,0.14467 3.32699,0.10409 3.82422,-0.0566 1.54025,-0.49789 2.20022,-1.07402 2.66797,-2.32422 0.28016,-0.74889 0.30469,-1.15425 0.30469,-5.4414 l 0,-4.632814 -0.85938,0.04492 c -0.79579,0.04151 -0.85938,0.07248 -0.85938,0.40625 0,0.198133 -0.0848,0.387214 -0.1875,0.421874 -0.10272,0.03465 -0.18554,-0.005 -0.18554,-0.08984 0,-0.08481 -0.42987,-0.360668 -0.95508,-0.611328 -0.80426,-0.383844 -1.13365,-0.455079 -2.08594,-0.455079 z m 12.23047,0 c -2.1959,10e-7 -3.83462,0.963861 -4.70117,2.763668 -0.29902,0.62111 -0.36114,0.98591 -0.36914,2.16602 -0.008,1.24721 0.0383,1.51816 0.39062,2.24023 0.61699,1.26423 1.30272,1.88732 2.63477,2.39454 0.80439,0.3063 2.70305,0.37913 3.47656,0.13281 1.31708,-0.41941 2.09727,-0.97363 2.6875,-1.9043 0.61062,-0.96287 0.57573,-1.16044 -0.23437,-1.27148 -0.73701,-0.10102 -1.125,-0.0103 -1.125,0.26172 0,0.29206 -1.08115,1.23026 -1.62696,1.4121 -1.90912,0.63606 -4.08351,-0.47732 -4.4082,-2.25781 l -0.10156,-0.56054 4.11328,0 4.11523,0 0,-0.78516 c 0,-0.92135 -0.41813,-2.163011 -0.97461,-2.892579 -0.83233,-1.091257 -2.22046,-1.699219 -3.87695,-1.699219 z m -60.01172,0.298829 c -1.02757,0 -1.00316,-0.172944 -0.26562,1.792968 0.89297,2.380231 1.34589,3.583151 1.81054,4.816411 0.25516,0.67717 0.57391,1.55146 0.70899,1.9414 l 0.24609,0.70703 0.84961,0.002 c 0.51904,8.9e-4 0.89675,-0.0716 0.96875,-0.18555 0.0649,-0.1027 0.298,-0.69048 0.51758,-1.30664 0.21957,-0.61617 0.68055,-1.89311 1.02539,-2.83789 0.34485,-0.94478 0.66073,-1.86985 0.70313,-2.05469 0.11524,-0.50261 0.24919,-0.41274 0.54882,0.37305 0.87293,2.2894 1.96056,5.22388 2.13282,5.75195 0.0684,0.2097 0.25799,0.26172 0.96289,0.26172 0.48335,0 0.8789,-0.0182 0.8789,-0.0391 0,-0.0517 0.61377,-1.70307 2.0918,-5.63672 0.97861,-2.604484 1.19531,-3.221011 1.19531,-3.398439 0,-0.128575 -0.26989,-0.187867 -0.85937,-0.1875 l -0.85938,0.002 -0.39844,1.230468 c -0.21917,0.677403 -0.60855,1.803651 -0.86718,2.501961 -0.25863,0.69832 -0.57081,1.57169 -0.69336,1.9414 -0.12257,0.36968 -0.25372,0.76501 -0.29102,0.87696 -0.0933,0.27999 -0.45343,-0.0274 -0.55273,-0.47071 -0.0408,-0.18234 -0.28953,-0.90324 -0.55078,-1.60156 -0.26123,-0.69832 -0.56941,-1.53857 -0.68555,-1.86719 -0.11615,-0.328628 -0.37058,-1.034356 -0.56445,-1.568361 l -0.35157,-0.970703 -0.82226,-0.04297 c -0.93912,-0.05039 -1.00701,0.0053 -1.35352,1.089843 -0.13125,0.410778 -0.4514,1.317311 -0.71093,2.015631 -0.25951,0.69831 -0.65192,1.82453 -0.8711,2.50194 -0.21917,0.6774 -0.43421,1.2321 -0.47851,1.23242 -0.0443,3.9e-4 -0.30146,-0.6209 -0.57032,-1.38084 -0.26887,-0.75994 -0.61816,-1.73471 -0.77734,-2.16602 -0.15918,-0.43132 -0.43097,-1.172149 -0.60352,-1.644537 -0.6822,-1.867708 -0.51283,-1.679687 -1.51367,-1.679687 z m 24.62696,1.175781 c 0.53277,0.0083 1.0326,0.114961 1.38867,0.332031 0.76011,0.463391 1.64901,1.733797 1.39258,1.990237 -0.0479,0.0479 -1.45451,0.0879 -3.125,0.0879 -2.86446,0 -3.03711,-0.0165 -3.03711,-0.2793 0,-0.29132 0.45656,-0.95383 0.96875,-1.404296 0.54543,-0.479717 1.52415,-0.740426 2.41211,-0.726562 z m 35.55078,0 c 0.53277,0.0083 1.03259,0.114961 1.38867,0.332031 0.76012,0.463391 1.64901,1.733797 1.39258,1.990237 -0.0479,0.0479 -1.4545,0.0879 -3.125,0.0879 -2.86446,0 -3.03711,-0.0165 -3.03711,-0.2793 0,-0.29132 0.45656,-0.95383 0.96875,-1.404296 0.54544,-0.479717 1.52416,-0.740426 2.41211,-0.726562 z m -12.02539,0.01172 c 0.85279,0.05378 1.68576,0.393926 2.2207,1.001953 0.64248,0.730275 0.77344,1.097025 0.77344,2.164065 0,1.25441 -0.42837,2.1008 -1.38282,2.73242 -1.02416,0.67776 -2.61831,0.66305 -3.74804,-0.0352 -0.83224,-0.51435 -1.23528,-1.3992 -1.23828,-2.7207 -0.002,-1.17124 0.23634,-1.72809 1.03711,-2.427735 0.61303,-0.535628 1.48509,-0.768627 2.33789,-0.714843 z m -11.91211,0.0098 c 0.73677,0.02327 1.46044,0.276664 2.00976,0.789063 0.66692,0.622105 0.92102,1.344655 0.91602,2.601565 -0.005,1.49774 -0.38287,2.30289 -1.40235,2.99219 -0.63887,0.43198 -0.82686,0.48551 -1.70898,0.47461 -0.54526,-0.007 -1.19702,-0.10412 -1.44922,-0.21485 -0.66786,-0.29321 -1.51635,-1.30196 -1.7168,-2.04296 -0.22992,-0.84994 -0.10059,-2.16004 0.28907,-2.92383 0.56803,-1.11345 1.83454,-1.71457 3.0625,-1.675788 z m -42.09375,0.0059 c 0.40077,0.02715 0.80221,0.127488 1.1875,0.308593 1.15691,0.543813 1.71289,1.532615 1.71289,3.044925 0,1.53116 -0.63171,2.61444 -1.86328,3.19336 -1.19634,0.56234 -2.62704,0.34146 -3.56055,-0.55078 -0.68646,-0.65611 -0.92392,-1.31931 -0.91992,-2.57227 0.003,-0.95536 0.0663,-1.23193 0.41797,-1.83203 0.63876,-1.089974 1.82308,-1.673263 3.02539,-1.591798 z"
     id="path4187"
     inkscape:connector-curvature="0" />
  <path
     style="fill:#0e1b65;fill-opacity:1"
     d="m 128.45898,94.339844 c -0.92223,0.02213 -1.86288,0.317968 -2.42187,0.876953 -0.91398,0.913976 -0.82346,2.569355 0.20312,3.708984 l 0.38086,0.421875 -0.37304,0.289063 c -1.97946,1.531001 -2.29293,2.021741 -2.29493,3.585941 -6.8e-4,0.96068 0.0596,1.23954 0.39649,1.81445 0.69128,1.17958 1.41146,1.65273 3.01953,1.98633 0.49294,0.10225 0.99591,0.16226 1.11914,0.13476 0.12323,-0.0275 0.55993,-0.0958 0.9707,-0.15234 0.75848,-0.10441 1.60121,-0.45902 2.36329,-0.99609 l 0.42187,-0.29688 0.43945,0.45117 c 0.64748,0.66227 1.63306,1.08241 2.28516,0.97656 0.2208,-0.0358 0.37304,-0.0924 0.49805,-0.16406 0.003,-0.48534 0.0142,-0.97019 0.0371,-1.45508 -0.0899,-0.0298 -0.20351,-0.055 -0.37696,-0.0781 -0.61589,-0.0822 -1.56054,-0.63536 -1.56054,-0.91406 0,-0.0844 0.12655,-0.3327 0.28125,-0.55078 0.49697,-0.70053 1.21289,-2.55417 1.21289,-3.14063 0,-0.10749 -0.32799,-0.16797 -0.89649,-0.16797 -0.82919,0 -0.89643,0.025 -0.89844,0.33594 -0.003,0.44712 -0.3042,1.29495 -0.64843,1.82031 l -0.2793,0.42383 -0.39453,-0.43164 c -1.79032,-1.96131 -2.57956,-2.902721 -2.53516,-3.021485 0.0287,-0.07677 0.34937,-0.366253 0.71289,-0.642578 0.71528,-0.54371 1.34457,-1.59671 1.35157,-2.261719 0.005,-0.490806 -0.35342,-1.402639 -0.70313,-1.789062 -0.48324,-0.53398 -1.38831,-0.7858 -2.31055,-0.763672 z m -0.0586,1.488281 c 1.13725,0.02377 1.57628,0.707181 1.07422,1.673828 -0.11524,0.221841 -0.41488,0.555379 -0.66602,0.740235 -0.25115,0.184848 -0.51749,0.335937 -0.59179,0.335937 -0.21579,0 -0.90932,-1.0855 -1.00782,-1.578125 -0.1443,-0.721529 0.33155,-1.189865 1.19141,-1.171875 z m -0.78125,4.851565 c 0.10805,0.005 0.92583,0.84624 1.81641,1.87109 1.78616,2.05542 1.78236,2.04577 0.67383,2.61133 -0.85932,0.43841 -2.55806,0.38826 -3.29688,-0.0957 -0.71595,-0.46895 -1.01172,-1.05686 -1.01172,-2.00977 0,-0.72582 0.0393,-0.80496 0.81055,-1.57617 0.44649,-0.44649 0.89977,-0.80578 1.00781,-0.80078 z"
     id="path4189"
     inkscape:connector-curvature="0" />
</svg>
