<?xml version="1.0" encoding="UTF-8" standalone="no"?>
<!-- Created with Inkscape (http://www.inkscape.org/) -->

<svg
   xmlns:dc="http://purl.org/dc/elements/1.1/"
   xmlns:cc="http://creativecommons.org/ns#"
   xmlns:rdf="http://www.w3.org/1999/02/22-rdf-syntax-ns#"
   xmlns:svg="http://www.w3.org/2000/svg"
   xmlns="http://www.w3.org/2000/svg"
   xmlns:sodipodi="http://sodipodi.sourceforge.net/DTD/sodipodi-0.dtd"
   xmlns:inkscape="http://www.inkscape.org/namespaces/inkscape"
   id="svg2"
   version="1.1"
   inkscape:version="0.91 r13725"
   width="1366"
   height="680"
   viewBox="0 0 1366 680"
   sodipodi:docname="backcity.svg">
  <metadata
     id="metadata8">
    <rdf:RDF>
      <cc:Work
         rdf:about="">
        <dc:format>image/svg+xml</dc:format>
        <dc:type
           rdf:resource="http://purl.org/dc/dcmitype/StillImage" />
        <dc:title></dc:title>
      </cc:Work>
    </rdf:RDF>
  </metadata>
  <defs
     id="defs6" />
  <sodipodi:namedview
     pagecolor="#ffffff"
     bordercolor="#666666"
     borderopacity="1"
     objecttolerance="10"
     gridtolerance="10"
     guidetolerance="10"
     inkscape:pageopacity="0"
     inkscape:pageshadow="2"
     inkscape:window-width="1319"
     inkscape:window-height="744"
     id="namedview4"
     showgrid="false"
     inkscape:zoom="0.36386384"
     inkscape:cx="864.2187"
     inkscape:cy="107.02973"
     inkscape:window-x="47"
     inkscape:window-y="24"
     inkscape:window-maximized="1"
     inkscape:current-layer="svg2" />
  <path
     style="fill:#767676;fill-opacity:1"
     d="m -270,547.76627 0.8223,-1.33049 0.8224,-1.3305 0.06,-24.18778 c 0.033,-13.30327 0.5095,-38.38492 1.0582,-55.73704 0.5486,-17.35208 1.0193,-47.876 1.0458,-67.83092 l 0.048,-36.28165 0.9638,-1.52345 0.9638,-1.52344 9.2736,-0.0541 c 5.1005,-0.0298 11.1197,0.30969 13.3759,0.75419 l 4.1022,0.80822 1.9447,-1.75993 c 1.0696,-0.96795 1.9447,-2.48689 1.9447,-3.3754 l 0,-1.61546 1.5775,2.04137 1.5775,2.04137 1.4802,-1.90833 1.4801,-1.90834 3.2523,4.72693 3.2521,4.72692 0,3.64166 0,3.64166 1.4643,0.5619 c 0.8054,0.30903 2.1068,0.41997 2.892,0.24653 0.7853,-0.17335 2.9658,-0.67145 4.8456,-1.10665 l 3.4179,-0.79129 0,-6.50323 0,-6.50322 1.3143,-1.73351 1.3146,-1.73278 5.2582,-0.30859 5.2582,-0.3086 0.3228,-3.32833 0.3229,-3.32833 1.6124,-0.61874 c 0.8868,-0.3403 2.043,-0.35265 2.5692,-0.0274 l 0.9567,0.59129 0,4.12448 0,4.12448 2.6873,0.67446 2.6874,0.67448 2.493,-2.34209 2.493,-2.34207 1.1295,0.69805 c 0.6212,0.38393 1.1295,1.29647 1.1295,2.02784 l 0,1.32979 6.4898,1.2069 c 3.5695,0.66382 6.8542,1.57551 7.2994,2.026 l 0.8095,0.81908 0.1866,10.51642 0.1866,10.51643 1.056,1.31456 1.0559,1.31454 3.4244,0 3.4244,0 1.3501,3.25937 1.3501,3.25936 -0.8286,61.15372 c -0.4558,33.63457 -0.8876,63.26708 -0.9596,65.85005 l -0.131,4.69631 7.8874,0.0361 7.8873,0.0361 0.5258,-7.36148 0.5258,-7.3615 3.4178,-0.32954 3.4179,-0.32955 0,-3.00228 c 0,-1.65125 0.2872,-3.75085 0.6383,-4.66575 l 0.6384,-1.66346 13.9559,0 13.9558,0 1.3092,-1.57747 1.3092,-1.57746 10.2247,0 10.2246,0 2.0034,-2.20876 2.0034,-2.20875 0.7721,-11.19969 c 0.6496,-9.42266 1.3126,-17.08989 1.7582,-20.33171 0.054,-0.39538 1.4002,-0.86863 2.9908,-1.05163 l 2.892,-0.33277 0.3578,-3.1515 0.3578,-3.15152 1.2196,-0.76813 1.2197,-0.76814 1.8404,0.57267 1.8404,0.57269 0,-5.26702 0,-5.26701 0.9789,-0.60503 0.979,-0.60505 0.6606,1.0688 0.6605,1.06879 9.3319,0 9.3318,0 0.6919,-2.18009 0.692,-2.18007 1.8367,1.66222 1.8368,1.66224 3.2292,-0.64586 3.2293,-0.64585 1.2219,2.28325 1.222,2.28325 1.458,-1.21008 1.4581,-1.21008 1.1016,0.68081 1.1015,0.68081 -0.6437,2.56465 -0.6437,2.56465 0.6284,2.50344 0.6283,2.50345 2.1749,0.56875 2.1749,0.56876 1.2221,3.23765 c 0.6721,1.78071 1.5916,3.23767 2.0432,3.23767 l 0.821,0 0,-5.87168 0,-5.87167 1.3146,0.43276 1.3146,0.43274 0.3301,5.14931 0.3302,5.1493 1.032,1.24353 1.0321,1.24354 6.4001,0.74281 6.4001,0.74281 -0.1915,32.74456 c -0.1053,18.00949 -0.2048,36.43685 -0.2211,40.94968 l -0.03,8.20515 1.2078,1.45533 1.2078,1.45533 -1.1246,2.10137 c -1.6559,3.09406 -1.4929,3.28697 2.8191,3.33744 2.169,0.0252 5.6924,0.6706 7.8299,1.43381 l 3.8863,1.38765 0.5832,-1.51982 c 0.3207,-0.83591 0.5832,-23.46848 0.5832,-50.29463 l 0,-48.77483 3.9437,-0.95153 c 2.169,-0.52336 5.8365,-1.36976 8.1501,-1.88092 l 4.2066,-0.92936 -0.1172,-2.85856 -0.1171,-2.85857 3.6909,-1.21812 c 4.1087,-1.35596 15.0973,-3.187 19.1537,-3.19156 1.446,-0.002 12.1836,0.39405 23.8612,0.8793 l 21.23205,0.88227 0.71144,0.7114 c 0.39131,0.39128 1.03092,2.27346 1.4214,4.18262 l 0.70986,3.47122 7.31837,0 7.31838,0 0,-6.20763 0,-6.20761 3.15493,-1.76083 3.15492,-1.76084 0.64991,-9.38365 c 0.74332,-10.73406 1.64804,-14.84781 3.38871,-15.408 0.67085,-0.21586 12.89304,-0.20212 27.16056,0.0307 l 25.94085,0.42309 0.55581,2.25953 c 0.30571,1.24273 1.10211,6.51867 1.76979,11.72431 0.66759,5.20562 1.56927,10.17462 2.00371,11.04224 l 0.78967,1.57746 3.25262,0.32512 3.25263,0.32513 1.63667,-3.16492 1.63657,-3.16492 0.0337,-7.67663 0.0335,-7.67663 1.39711,-1.84037 1.39701,-1.84038 2.22895,0 2.22895,0 0.28416,-21.82157 0.28426,-21.82158 16.82627,0.0144 16.82628,0.0144 0.54875,-0.74026 c 0.30171,-0.40713 0.66021,-14.10184 0.7964,-30.43267 0.13637,-16.33083 0.48975,-29.93439 0.78558,-30.23013 0.29572,-0.29574 2.30352,-1.18912 4.46169,-1.98527 l 3.924,-1.44758 11.04225,-0.46546 c 14.73277,-0.62105 33.55232,-0.48032 36.80758,0.27523 1.44601,0.33564 3.22349,1.0786 3.95017,1.65105 l 1.32107,1.04083 12.12103,-0.15315 12.12112,-0.15315 2.06952,1.1076 2.06964,1.10763 -0.10877,48.07563 c -0.0599,26.44158 -0.41476,55.85163 -0.78874,65.35562 l -0.67989,17.27998 1.38965,1.38666 1.38975,1.38668 4.13137,0 4.13148,0 0,-6.76722 0,-6.76722 0.99497,-2.617 0.99495,-2.61699 2.42288,-0.34348 2.42287,-0.34349 0.52582,-7.33642 0.52583,-7.33644 8.41313,-1.62896 8.41314,-1.62895 0.52583,-10.40601 0.52582,-10.40603 2.6291,-0.78071 c 1.44601,-0.42941 3.93051,-1.06775 5.52112,-1.41857 l 2.89201,-0.63784 0.0162,-9.70765 0.0162,-9.70766 0.85773,-1.35181 0.85772,-1.35181 4.12148,-0.66831 4.12151,-0.6683 8.41313,-6.33871 c 4.62723,-3.48629 9.96767,-7.66456 11.86756,-9.28506 l 3.45507,-2.9463 2.17953,0 2.17963,0 9.61475,7.1481 c 14.30086,10.63189 15.99547,11.73435 20.34897,13.23772 l 3.98887,1.37751 0.52582,10.9399 0.52582,10.93991 4.98963,0.3203 4.98972,0.32031 0.53947,2.30881 c 0.2967,1.26984 0.6541,9.40737 0.7943,18.08343 l 0.255,15.77463 8.4095,0.31181 c 4.6254,0.17155 9.4761,0.0442 10.7794,-0.28293 l 2.3697,-0.59477 0,-2.08325 0,-2.08324 1.0778,0 c 0.5926,0 1.5273,1.18309 2.0771,2.6291 l 0.9996,2.6291 18.4989,0 18.499,0 2.034,1.08865 2.0342,1.08864 0,2.06628 0,2.06628 3.0865,0 c 1.6976,0 4.2721,-0.45076 5.7212,-1.0017 l 2.6346,-1.00168 0.3258,-4.51943 0.3258,-4.51943 4.1974,-0.52581 4.1974,-0.52582 1.5089,-3.15493 c 0.8298,-1.73522 1.7926,-4.53928 2.1394,-6.23122 l 0.6307,-3.07631 1.1654,-0.3885 1.1656,-0.38848 1.4365,1.4314 1.4366,1.43139 7.8874,-0.19429 c 4.338,-0.10679 10.0924,-0.54058 12.7874,-0.96378 l 4.9001,-0.76946 0.5226,-1.99813 0.5226,-1.99815 3.3517,0 3.3518,0 0.5502,2.10328 0.55,2.10328 1.7276,0 1.7276,0 1.3135,-2.10328 1.3135,-2.10328 1.5486,0 1.5485,0 0.6378,2.89202 c 0.3509,1.5906 1.2247,4.78496 1.9418,7.09858 l 1.3038,4.20656 4.1253,0.33319 c 2.2689,0.18325 4.5342,0.73421 5.0341,1.22431 l 0.9088,0.89114 -0.1446,21.91182 c -0.1481,22.44234 -1.0142,43.37926 -1.8526,44.78502 -0.2587,0.43381 -1.3216,0.78874 -2.3619,0.78874 l -1.8914,0 -0.6856,6.04694 c -0.3772,3.3258 -0.8587,7.40284 -1.0702,9.06009 l -0.3845,3.01315 2.5366,2.20548 2.5366,2.20547 -0.1527,11.93187 c -0.084,6.56254 0.1352,12.21979 0.487,12.57165 l 0.6399,0.63979 0,-6.88252 0,-6.88252 1.559,-3.73139 1.5591,-3.73138 9.2202,-0.62549 c 14.9424,-1.01364 20.4915,-1.03849 25.7837,-0.11544 l 4.9953,0.87124 0,-19.33542 c 0,-10.63445 0.3145,-29.6676 0.6959,-42.29583 l 0.6933,-22.96043 2.5495,-1.67051 c 1.4023,-0.91878 4.2835,-1.95982 6.4027,-2.31343 l 3.8531,-0.64289 -0.3287,-3.3726 -0.3288,-3.37262 2.9153,-2.70174 2.9152,-2.70174 28.1727,0.32475 28.17273,0.32476 0.1225,2.10328 c 0.067,1.15681 0.029,2.98273 -0.084,4.05761 -0.1136,1.07486 0.078,3.08613 0.4247,4.46947 l 0.6313,2.51517 6.2529,0 6.2527,0 1.0887,2.03413 1.0887,2.03416 0,23.33402 0,23.33405 1.3734,-1.13988 1.3735,-1.13987 10.4575,-0.30345 10.4575,-0.30344 0.2802,-26.83071 0.2801,-26.83071 3.4006,-1.3953 c 1.8704,-0.76741 4.9386,-2.17022 6.8185,-3.11733 l 3.4178,-1.72204 0,-3.80444 0,-3.80442 1.8404,-1.57732 c 1.0122,-0.86751 3.8612,-2.36058 6.3311,-3.31793 l 4.4935,-1.74059 16.7299,0 16.7298,0 1.4246,1.4245 1.4245,1.42453 5.7491,-0.21975 c 3.1621,-0.12086 6.0894,-0.28865 6.505,-0.37287 l 0.7557,-0.15315 -0.513,-1.33693 -0.513,-1.33694 3.8213,-4.05139 3.8214,-4.05139 0.9151,1.44465 c 0.5033,0.79459 0.9224,1.83727 0.9313,2.31709 l 0.016,0.8724 10.396,-0.27918 10.396,-0.27918 1.8101,1.81008 1.8101,1.81007 -1.2501,3.01796 -1.2501,3.018 0.3492,2.45927 0.3491,2.45928 3.155,0.5384 3.1549,0.5384 0.3179,5.5153 0.3178,5.51531 3.0379,0 3.0379,0 0.65,-1.05163 c 0.3574,-0.57841 1.5685,-1.05165 2.6911,-1.05165 l 2.0413,0 -0.026,2.36619 c -0.014,1.30141 0.136,13.33518 0.3347,26.74173 l 0.3612,24.3755 1.1755,1.41642 1.1755,1.41642 0.3302,5.22608 0.3302,5.22609 3.1549,0.53707 3.1549,0.53704 0.3232,5.77824 0.3232,5.77821 0.9913,0.99907 c 0.5453,0.54947 0.9914,1.99285 0.9914,3.20751 0,1.21464 0.5113,2.71976 1.1363,3.34471 l 1.1362,1.13626 0.605,40.63499 0.6049,40.635 2.7283,0.646 c 1.5006,0.3553 3.4381,1.2388 4.3057,1.96335 l 1.5775,1.31734 3.4178,-0.52631 3.4179,-0.52631 0,-2.82524 0,-2.82523 -1.1913,-1.19129 -1.1913,-1.19128 0.6133,-1.59818 0.6133,-1.5982 7.3954,0.0233 c 4.0675,0.0126 7.8269,-0.24329 8.3542,-0.56919 1.622,-1.00244 2.4336,-8.76434 2.9175,-27.89926 l 0.464,-18.35453 1.0868,-1.30957 1.0868,-1.30954 4.9116,-0.3171 4.9115,-0.31712 0.5258,-46.57414 0.5258,-46.57413 1.4623,-0.90314 1.4623,-0.90315 0.6551,-4.05319 0.6551,-4.05319 9.2755,-0.52583 9.2754,-0.52582 2.6537,-7.3615 c 1.4595,-4.04881 3.0163,-9.15489 3.4594,-11.34683 0.9446,-4.67162 1.5091,-5.41487 3.5251,-4.64123 l 1.4913,0.57224 0.5708,2.97551 c 0.314,1.63655 1.0744,4.63187 1.6898,6.65628 0.6153,2.02442 1.7089,5.93108 2.4302,8.68147 l 1.3113,5.00072 1.9674,0.62443 c 1.0821,0.34343 10.6126,0.95431 21.1788,1.35751 l 19.2117,0.7331 1.7168,1.71688 1.7169,1.71687 0,7.6304 0,7.6304 2.0671,4.27569 2.0671,4.27568 0.2991,33.12675 0.2991,33.12672 5.2582,0.54312 5.2583,0.54311 3.4177,2.54666 3.418,2.54669 0,3.7748 0,3.7748 1.5901,2.27033 c 0.8747,1.24869 1.7633,3.75706 1.9748,5.57413 0.438,3.76072 1.3307,4.87956 4.3224,5.41677 l 2.1038,0.37769 0.2971,12.44739 0.2973,12.44738 7.5897,-0.74843 0,86.13758 L 494.71797,655 -268.2954,654.3612 Z m 297.2326,14.16461 0,-4.60827 -0.9789,-0.60503 -0.979,-0.60503 -0.7067,1.14346 -0.7067,1.14345 0.7015,4.67808 0.7015,4.67808 0.9842,-0.60824 0.9841,-0.60824 z"
     id="path4185"
     inkscape:connector-curvature="0"
     sodipodi:nodetypes="cccssscccsscsscccccccccscsccccccccccccccccccsscsscccccccccsscccccccsccccccccccscccccccccccccccccccccccccccccccccccsscccccccccccsscccscsccscsscccscsccccccccccccsccccccccccccccccccccccscscccccccssccccccccccccccccccscccccccsccccscccccccscsccccsccccccccsscccccccccccccsccccccccccccccscsscscscssccccccccccsscssccscccccccccccccccccccccccssccccccccccsscccccccccccccccccccccccsccsccccccccccsccccsscccccccccccsccccccccccccccccccccccscccccccccccccccccsccccccccccccccccccc" />
  <path
     sodipodi:nodetypes="cccssscccsscsscccccccccscsccccccccccccccccccsscsscccccccccsscccccccsccccccccccscccccccccccccccccccccccccccccccccccsscccccccccccsscccscsccscsscccscsccccccccccccsccccccccccccccccccccccscscccccccssccccccccccccccccccscccccccsccccscccccccscsccccsccccccccsscccccccccccccsccccccccccccccscsscscscssccccccccccsscssccscccccccccccccccccccccccssccccccccccsscccccccccccccccccccccccsccsccccccccccsccccsscccccccccccsccccccccccccccccccccccscccccccccccccccccsccccccccccccccccccc"
     inkscape:connector-curvature="0"
     id="path4202"
     d="m 1096,547.76627 0.8223,-1.33049 0.8224,-1.3305 0.06,-24.18778 c 0.033,-13.30327 0.5095,-38.38492 1.0582,-55.73704 0.5486,-17.35208 1.0193,-47.876 1.0458,-67.83092 l 0.048,-36.28165 0.9638,-1.52345 0.9638,-1.52344 9.2736,-0.0541 c 5.1005,-0.0298 11.1197,0.30969 13.3759,0.75419 l 4.1022,0.80822 1.9447,-1.75993 c 1.0696,-0.96795 1.9447,-2.48689 1.9447,-3.3754 l 0,-1.61546 1.5775,2.04137 1.5775,2.04137 1.4802,-1.90833 1.4801,-1.90834 3.2523,4.72693 3.2521,4.72692 0,3.64166 0,3.64166 1.4643,0.5619 c 0.8054,0.30903 2.1068,0.41997 2.892,0.24653 0.7853,-0.17335 2.9658,-0.67145 4.8456,-1.10665 l 3.4179,-0.79129 0,-6.50323 0,-6.50322 1.3143,-1.73351 1.3146,-1.73278 5.2582,-0.30859 5.2582,-0.3086 0.3228,-3.32833 0.3229,-3.32833 1.6124,-0.61874 c 0.8868,-0.3403 2.043,-0.35265 2.5692,-0.0274 l 0.9567,0.59129 0,4.12448 0,4.12448 2.6873,0.67446 2.6874,0.67448 2.493,-2.34209 2.493,-2.34207 1.1295,0.69805 c 0.6212,0.38393 1.1295,1.29647 1.1295,2.02784 l 0,1.32979 6.4898,1.2069 c 3.5695,0.66382 6.8542,1.57551 7.2994,2.026 l 0.8095,0.81908 0.1866,10.51642 0.1866,10.51643 1.056,1.31456 1.0559,1.31454 3.4244,0 3.4244,0 1.3501,3.25937 1.3501,3.25936 -0.8286,61.15372 c -0.4558,33.63457 -0.8876,63.26708 -0.9596,65.85005 l -0.131,4.69631 7.8874,0.0361 7.8873,0.0361 0.5258,-7.36148 0.5258,-7.3615 3.4178,-0.32954 3.4179,-0.32955 0,-3.00228 c 0,-1.65125 0.2872,-3.75085 0.6383,-4.66575 l 0.6384,-1.66346 13.9559,0 13.9558,0 1.3092,-1.57747 1.3092,-1.57746 10.2247,0 10.2246,0 2.0034,-2.20876 2.0034,-2.20875 0.7721,-11.19969 c 0.6496,-9.42266 1.3126,-17.08989 1.7582,-20.33171 0.054,-0.39538 1.4002,-0.86863 2.9908,-1.05163 l 2.892,-0.33277 0.3578,-3.1515 0.3578,-3.15152 1.2196,-0.76813 1.2197,-0.76814 1.8404,0.57267 1.8404,0.57269 0,-5.26702 0,-5.26701 0.9789,-0.60503 0.979,-0.60505 0.6606,1.0688 0.6605,1.06879 9.3319,0 9.3318,0 0.6919,-2.18009 0.692,-2.18007 1.8367,1.66222 1.8368,1.66224 3.2292,-0.64586 3.2293,-0.64585 1.2219,2.28325 1.222,2.28325 1.458,-1.21008 1.4581,-1.21008 1.1016,0.68081 1.1015,0.68081 -0.6437,2.56465 -0.6437,2.56465 0.6284,2.50344 0.6283,2.50345 2.1749,0.56875 2.1749,0.56876 1.2221,3.23765 c 0.6721,1.78071 1.5916,3.23767 2.0432,3.23767 l 0.821,0 0,-5.87168 0,-5.87167 1.3146,0.43276 1.3146,0.43274 0.3301,5.14931 0.3302,5.1493 1.032,1.24353 1.0321,1.24354 6.4001,0.74281 6.4001,0.74281 -0.1915,32.74456 c -0.1053,18.00949 -0.2048,36.43685 -0.2211,40.94968 l -0.03,8.20515 1.2078,1.45533 1.2078,1.45533 -1.1246,2.10137 c -1.6559,3.09406 -1.4929,3.28697 2.8191,3.33744 2.169,0.0252 5.6924,0.6706 7.8299,1.43381 l 3.8863,1.38765 0.5832,-1.51982 c 0.3207,-0.83591 0.5832,-23.46848 0.5832,-50.29463 l 0,-48.77483 3.9437,-0.95153 c 2.169,-0.52336 5.8365,-1.36976 8.1501,-1.88092 l 4.2066,-0.92936 -0.1172,-2.85856 -0.1171,-2.85857 3.6909,-1.21812 c 4.1087,-1.35596 15.0973,-3.187 19.1537,-3.19156 1.446,-0.002 12.1836,0.39405 23.8612,0.8793 l 21.232,0.88227 0.7115,0.7114 c 0.3913,0.39128 1.0309,2.27346 1.4214,4.18262 l 0.7098,3.47122 7.3184,0 7.3184,0 0,-6.20763 0,-6.20761 3.1549,-1.76083 3.1549,-1.76084 0.6499,-9.38365 c 0.7434,-10.73406 1.6481,-14.84781 3.3888,-15.408 0.6708,-0.21586 12.893,-0.20212 27.1605,0.0307 l 25.9409,0.42309 0.5558,2.25953 c 0.3057,1.24273 1.1021,6.51867 1.7698,11.72431 0.6676,5.20562 1.5692,10.17462 2.0037,11.04224 l 0.7896,1.57746 3.2527,0.32512 3.2526,0.32513 1.6367,-3.16492 1.6365,-3.16492 0.034,-7.67663 0.034,-7.67663 1.3971,-1.84037 1.3971,-1.84038 2.2289,0 2.229,0 0.2841,-21.82157 0.2843,-21.82158 16.8262,0.0144 16.8263,0.0144 0.5488,-0.74026 c 0.3017,-0.40713 0.6602,-14.10184 0.7964,-30.43267 0.1363,-16.33083 0.4897,-29.93439 0.7856,-30.23013 0.2957,-0.29574 2.3035,-1.18912 4.4616,-1.98527 l 3.924,-1.44758 11.0423,-0.46546 c 14.7328,-0.62105 33.5523,-0.48032 36.8076,0.27523 1.446,0.33564 3.2235,1.0786 3.9501,1.65105 l 1.3211,1.04083 12.121,-0.15315 12.1212,-0.15315 2.0695,1.1076 2.0696,1.10763 -0.1087,48.07563 c -0.06,26.44158 -0.4148,55.85163 -0.7888,65.35562 l -0.6799,17.27998 1.3897,1.38666 1.3897,1.38668 4.1314,0 4.1315,0 0,-6.76722 0,-6.76722 0.9949,-2.617 0.995,-2.61699 2.4229,-0.34348 2.4228,-0.34349 0.5259,-7.33642 0.5258,-7.33644 8.4131,-1.62896 8.4132,-1.62895 0.5258,-10.40601 0.5258,-10.40603 2.6291,-0.78071 c 1.446,-0.42941 3.9305,-1.06775 5.5211,-1.41857 l 2.892,-0.63784 0.016,-9.70765 0.016,-9.70766 0.8578,-1.35181 0.8577,-1.35181 4.1215,-0.66831 4.1215,-0.6683 8.4131,-6.33871 c 4.6272,-3.48629 9.9677,-7.66456 11.8676,-9.28506 l 3.455,-2.9463 2.1796,0 2.1796,0 9.6148,7.1481 c 14.3008,10.63189 15.9954,11.73435 20.3489,13.23772 l 3.9889,1.37751 0.5258,10.9399 0.5258,10.93991 4.9897,0.3203 4.9897,0.32031 0.5395,2.30881 c 0.2967,1.26984 0.6541,9.40737 0.7943,18.08343 l 0.255,15.77463 8.4095,0.31181 c 4.6254,0.17155 9.4761,0.0442 10.7794,-0.28293 l 2.3697,-0.59477 0,-2.08325 0,-2.08324 1.0778,0 c 0.5926,0 1.5273,1.18309 2.0771,2.6291 l 0.9996,2.6291 18.4989,0 18.499,0 2.034,1.08865 2.0342,1.08864 0,2.06628 0,2.06628 3.0865,0 c 1.6976,0 4.2721,-0.45076 5.7212,-1.0017 l 2.6346,-1.00168 0.3258,-4.51943 0.3258,-4.51943 4.1974,-0.52581 4.1974,-0.52582 1.5089,-3.15493 c 0.8298,-1.73522 1.7926,-4.53928 2.1394,-6.23122 l 0.6307,-3.07631 1.1654,-0.3885 1.1656,-0.38848 1.4365,1.4314 1.4366,1.43139 7.8874,-0.19429 c 4.338,-0.10679 10.0924,-0.54058 12.7874,-0.96378 l 4.9001,-0.76946 0.5226,-1.99813 0.5226,-1.99815 3.3517,0 3.3518,0 0.5502,2.10328 0.55,2.10328 1.7276,0 1.7276,0 1.3135,-2.10328 1.3135,-2.10328 1.5486,0 1.5485,0 0.6378,2.89202 c 0.3509,1.5906 1.2247,4.78496 1.9418,7.09858 l 1.3038,4.20656 4.1253,0.33319 c 2.2689,0.18325 4.5342,0.73421 5.0341,1.22431 l 0.9088,0.89114 -0.1446,21.91182 c -0.1481,22.44234 -1.0142,43.37926 -1.8526,44.78502 -0.2587,0.43381 -1.3216,0.78874 -2.3619,0.78874 l -1.8914,0 -0.6856,6.04694 c -0.3772,3.3258 -0.8587,7.40284 -1.0702,9.06009 l -0.3845,3.01315 2.5366,2.20548 2.5366,2.20547 -0.1527,11.93187 c -0.084,6.56254 0.1352,12.21979 0.487,12.57165 l 0.6399,0.63979 0,-6.88252 0,-6.88252 1.559,-3.73139 1.5591,-3.73138 9.2202,-0.62549 c 14.9424,-1.01364 20.4915,-1.03849 25.7837,-0.11544 l 4.9953,0.87124 0,-19.33542 c 0,-10.63445 0.3145,-29.6676 0.6959,-42.29583 l 0.6933,-22.96043 2.5495,-1.67051 c 1.4023,-0.91878 4.2835,-1.95982 6.4027,-2.31343 l 3.8531,-0.64289 -0.3287,-3.3726 -0.3288,-3.37262 2.9153,-2.70174 2.9152,-2.70174 28.1727,0.32475 28.1727,0.32476 0.1225,2.10328 c 0.067,1.15681 0.029,2.98273 -0.084,4.05761 -0.1136,1.07486 0.078,3.08613 0.4247,4.46947 l 0.6313,2.51517 6.2529,0 6.2527,0 1.0887,2.03413 1.0887,2.03416 0,23.33402 0,23.33405 1.3734,-1.13988 1.3735,-1.13987 10.4575,-0.30345 10.4575,-0.30344 0.2802,-26.83071 0.2801,-26.83071 3.4006,-1.3953 c 1.8704,-0.76741 4.9386,-2.17022 6.8185,-3.11733 l 3.4178,-1.72204 0,-3.80444 0,-3.80442 1.8404,-1.57732 c 1.0122,-0.86751 3.8612,-2.36058 6.3311,-3.31793 l 4.4935,-1.74059 16.7299,0 16.7298,0 1.4246,1.4245 1.4245,1.42453 5.7491,-0.21975 c 3.1621,-0.12086 6.0894,-0.28865 6.505,-0.37287 l 0.7557,-0.15315 -0.513,-1.33693 -0.513,-1.33694 3.8213,-4.05139 3.8214,-4.05139 0.9151,1.44465 c 0.5033,0.79459 0.9224,1.83727 0.9313,2.31709 l 0.016,0.8724 10.396,-0.27918 10.396,-0.27918 1.8101,1.81008 1.8101,1.81007 -1.2501,3.01796 -1.2501,3.018 0.3492,2.45927 0.3491,2.45928 3.155,0.5384 3.1549,0.5384 0.3179,5.5153 0.3178,5.51531 3.0379,0 3.0379,0 0.65,-1.05163 c 0.3574,-0.57841 1.5685,-1.05165 2.6911,-1.05165 l 2.0413,0 -0.026,2.36619 c -0.014,1.30141 0.136,13.33518 0.3347,26.74173 l 0.3612,24.3755 1.1755,1.41642 1.1755,1.41642 0.3302,5.22608 0.3302,5.22609 3.1549,0.53707 3.1549,0.53704 0.3232,5.77824 0.3232,5.77821 0.9913,0.99907 c 0.5453,0.54947 0.9914,1.99285 0.9914,3.20751 0,1.21464 0.5113,2.71976 1.1363,3.34471 l 1.1362,1.13626 0.605,40.63499 0.6049,40.635 2.7283,0.646 c 1.5006,0.3553 3.4381,1.2388 4.3057,1.96335 l 1.5775,1.31734 3.4178,-0.52631 3.4179,-0.52631 0,-2.82524 0,-2.82523 -1.1913,-1.19129 -1.1913,-1.19128 0.6133,-1.59818 0.6133,-1.5982 7.3954,0.0233 c 4.0675,0.0126 7.8269,-0.24329 8.3542,-0.56919 1.622,-1.00244 2.4336,-8.76434 2.9175,-27.89926 l 0.464,-18.35453 1.0868,-1.30957 1.0868,-1.30954 4.9116,-0.3171 4.9115,-0.31712 0.5258,-46.57414 0.5258,-46.57413 1.4623,-0.90314 1.4623,-0.90315 0.6551,-4.05319 0.6551,-4.05319 9.2755,-0.52583 9.2754,-0.52582 2.6537,-7.3615 c 1.4595,-4.04881 3.0163,-9.15489 3.4594,-11.34683 0.9446,-4.67162 1.5091,-5.41487 3.5251,-4.64123 l 1.4913,0.57224 0.5708,2.97551 c 0.314,1.63655 1.0744,4.63187 1.6898,6.65628 0.6153,2.02442 1.7089,5.93108 2.4302,8.68147 l 1.3113,5.00072 1.9674,0.62443 c 1.0821,0.34343 10.6126,0.95431 21.1788,1.35751 l 19.2117,0.7331 1.7168,1.71688 1.7169,1.71687 0,7.6304 0,7.6304 2.0671,4.27569 2.0671,4.27568 0.2991,33.12675 0.2991,33.12672 5.2582,0.54312 5.2583,0.54311 3.4177,2.54666 3.418,2.54669 0,3.7748 0,3.7748 1.5901,2.27033 c 0.8747,1.24869 1.7633,3.75706 1.9748,5.57413 0.438,3.76072 1.3307,4.87956 4.3224,5.41677 l 2.1038,0.37769 0.2971,12.44739 0.2973,12.44738 7.5897,-0.74843 0,86.13758 L 1860.7184,655 1097.705,654.3612 Z m 297.2326,14.16461 0,-4.60827 -0.9789,-0.60503 -0.979,-0.60503 -0.7067,1.14346 -0.7067,1.14345 0.7015,4.67808 0.7015,4.67808 0.9842,-0.60824 0.9841,-0.60824 z"
     style="fill:#767676;fill-opacity:1" />
  <rect
     style="opacity:1;fill:#767676;fill-opacity:1;stroke:none;stroke-width:10.25800037;stroke-linecap:butt;stroke-linejoin:miter;stroke-miterlimit:4;stroke-dasharray:none;stroke-opacity:1"
     id="rect4204"
     width="1448.344"
     height="153.90372"
     x="-38.475929"
     y="597.55157" />
</svg>
