<?xml version="1.0" encoding="UTF-8" standalone="no"?>
<!-- Created with Inkscape (http://www.inkscape.org/) -->

<svg
   xmlns:dc="http://purl.org/dc/elements/1.1/"
   xmlns:cc="http://creativecommons.org/ns#"
   xmlns:rdf="http://www.w3.org/1999/02/22-rdf-syntax-ns#"
   xmlns:svg="http://www.w3.org/2000/svg"
   xmlns="http://www.w3.org/2000/svg"
   xmlns:sodipodi="http://sodipodi.sourceforge.net/DTD/sodipodi-0.dtd"
   xmlns:inkscape="http://www.inkscape.org/namespaces/inkscape"
   width="1366"
   height="750"
   viewBox="0 0 1366 750"
   id="svg2"
   version="1.1"
   inkscape:version="0.91 r13725"
   sodipodi:docname="Background.svg">
  <defs
     id="defs4" />
  <sodipodi:namedview
     id="base"
     pagecolor="#ffffff"
     bordercolor="#666666"
     borderopacity="1.0"
     inkscape:pageopacity="0.0"
     inkscape:pageshadow="2"
     inkscape:zoom="0.16764275"
     inkscape:cx="424.09755"
     inkscape:cy="-578.72782"
     inkscape:document-units="px"
     inkscape:current-layer="layer1"
     showgrid="false"
     units="px"
     showguides="true"
     inkscape:guide-bbox="true"
     inkscape:window-width="1366"
     inkscape:window-height="715"
     inkscape:window-x="-8"
     inkscape:window-y="-8"
     inkscape:window-maximized="1" />
  <metadata
     id="metadata7">
    <rdf:RDF>
      <cc:Work
         rdf:about="">
        <dc:format>image/svg+xml</dc:format>
        <dc:type
           rdf:resource="http://purl.org/dc/dcmitype/StillImage" />
        <dc:title></dc:title>
      </cc:Work>
    </rdf:RDF>
  </metadata>
  <g
     inkscape:label="Layer 1"
     inkscape:groupmode="layer"
     id="layer1"
     transform="translate(0,-302.36219)">
    <rect
       style="opacity:1;fill:none;fill-opacity:1;fill-rule:nonzero;stroke:#0075a4;stroke-width:41.64400101;stroke-linecap:round;stroke-linejoin:miter;stroke-miterlimit:4;stroke-dasharray:none;stroke-dashoffset:0;stroke-opacity:1"
       id="rect5952"
       width="238.93365"
       height="238.93365"
       x="193.41046"
       y="694.8194"
       inkscape:export-xdpi="89.846703"
       inkscape:export-ydpi="89.846703" />
    <path
       style="fill:#0075a4;fill-opacity:1;stroke:none;stroke-opacity:1"
       d="m -208.89231,616.05424 c -0.99739,-0.0266 -1.94291,0.0426 -2.79492,0.22265 -5.30963,1.12193 -16.61693,7.59381 -22.22657,12.72071 -6.41871,5.86633 -8.32099,10.65282 -6.56445,16.51562 0.62523,2.08684 15.49326,27.97028 33.04102,57.51953 l 31.90429,53.72657 -7.7207,16.72851 c -16.10971,34.9 -21.60646,49.42851 -20.64258,54.56641 1.28069,6.8267 10.20045,13.80095 23.85938,18.65625 9.70988,3.4516 16.25995,2.35955 21.90429,-3.65235 2.91667,-3.1066 88.587751,-193.56684 89.527351,-199.0332 0.98875,-5.75224 -0.54359,-10.2096 -5.06836,-14.73437 -7.34453,-7.34453 -23.9695,-13.66888 -31.980471,-12.16602 -6.02993,1.13123 -9.32669,4.93716 -15.58008,17.98828 -5.76591,12.03376 -26.14729,57.34152 -27.45898,61.04102 -0.69474,1.9594 -9.21899,-11.59522 -35.23438,-56.02735 -5.27884,-9.01583 -10.93771,-17.70278 -12.57617,-19.30468 -2.77898,-2.71697 -8.06666,-4.65222 -12.38867,-4.76758 z m 159.478511,53.80078 c -0.0996,1.86204 -0.20286,3.70931 0.72071,5.23828 0.29156,0.48269 0.56598,0.90426 0.85351,1.37305 -0.0571,-0.75985 -0.0416,-1.52114 0.0449,-2.28321 -0.46661,-0.53578 -0.93674,-1.06432 -1.41406,-1.58398 -0.0299,-0.61173 -0.12475,-1.73573 -0.20508,-2.74414 z"
       id="path6007"
       inkscape:connector-curvature="0" />
    <path
       style="fill:none;fill-opacity:1;fill-rule:evenodd;stroke:#0075a4;stroke-width:50;stroke-linecap:butt;stroke-linejoin:miter;stroke-miterlimit:4;stroke-dasharray:none;stroke-opacity:1"
       d="M 419.68486,703.26073 301.58259,924.70249"
       id="path6033"
       inkscape:connector-curvature="0"
       sodipodi:nodetypes="cc"
       inkscape:export-xdpi="89.846703"
       inkscape:export-ydpi="89.846703" />
    <path
       inkscape:connector-curvature="0"
       id="path6035"
       d="m 276.09403,699.25474 69.95785,142.98602"
       style="fill:none;fill-opacity:1;fill-rule:evenodd;stroke:#0075a4;stroke-width:50;stroke-linecap:butt;stroke-linejoin:miter;stroke-miterlimit:4;stroke-dasharray:none;stroke-opacity:1"
       sodipodi:nodetypes="cc"
       inkscape:export-xdpi="89.846703"
       inkscape:export-ydpi="89.846703" />
    <rect
       y="1060.7926"
       x="197.6284"
       height="238.93365"
       width="238.93365"
       id="rect6039"
       style="opacity:1;fill:none;fill-opacity:1;fill-rule:nonzero;stroke:#0075a4;stroke-width:41.64400101;stroke-linecap:round;stroke-linejoin:miter;stroke-miterlimit:4;stroke-dasharray:none;stroke-dashoffset:0;stroke-opacity:1"
       inkscape:export-xdpi="89.846703"
       inkscape:export-ydpi="89.846703" />
    <path
       style="fill:none;fill-rule:evenodd;stroke:#0075a4;stroke-width:50;stroke-linecap:round;stroke-linejoin:miter;stroke-miterlimit:4;stroke-dasharray:none;stroke-opacity:1"
       d="m 301.99407,1254.3343 59.88433,0 10e-6,-175.0921 0,48.5892 c 0,59.2774 -84.35877,61.2309 -84.35877,0"
       id="path6049"
       inkscape:connector-curvature="0"
       sodipodi:nodetypes="ccccc"
       inkscape:export-xdpi="89.846703"
       inkscape:export-ydpi="89.846703" />
    <rect
       style="opacity:1;fill:#0075a4;fill-opacity:1;fill-rule:nonzero;stroke:none;stroke-width:41.64400101;stroke-linecap:round;stroke-linejoin:miter;stroke-miterlimit:4;stroke-dasharray:none;stroke-dashoffset:0;stroke-opacity:1"
       id="rect6053"
       width="238.93365"
       height="238.93365"
       x="213.6284"
       y="1746.6267"
       inkscape:export-xdpi="89.846703"
       inkscape:export-ydpi="89.846703" />
    <path
       sodipodi:nodetypes="ccccc"
       inkscape:connector-curvature="0"
       id="path6057"
       d="m 315.99407,1936.1684 59.88433,0 10e-6,-145.0921 0,26.5892 c 0,59.2774 -84.35877,61.2309 -84.35877,0"
       style="fill:none;fill-rule:evenodd;stroke:#ffffff;stroke-width:50;stroke-linecap:round;stroke-linejoin:round;stroke-miterlimit:4;stroke-dasharray:none;stroke-opacity:1"
       inkscape:export-xdpi="89.846703"
       inkscape:export-ydpi="89.846703" />
    <rect
       y="2092.6006"
       x="197.6284"
       height="238.93365"
       width="238.93365"
       id="rect6059"
       style="opacity:1;fill:#0075a4;fill-opacity:1;fill-rule:nonzero;stroke:none;stroke-width:41.64400101;stroke-linecap:round;stroke-linejoin:miter;stroke-miterlimit:4;stroke-dasharray:none;stroke-dashoffset:0;stroke-opacity:1"
       inkscape:export-xdpi="89.846703"
       inkscape:export-ydpi="89.846703" />
    <path
       style="fill:none;fill-rule:evenodd;stroke:#ffffff;stroke-width:61.43041992;stroke-linecap:round;stroke-linejoin:round;stroke-miterlimit:4;stroke-dasharray:none;stroke-opacity:1"
       d="m 342.5888,2306.4264 73.57439,0 1e-5,-195.4619 0,40.0394 c 0,72.8287 -103.64389,75.2288 -103.64389,0"
       id="path6063"
       inkscape:connector-curvature="0"
       sodipodi:nodetypes="ccccc"
       inkscape:export-xdpi="89.846703"
       inkscape:export-ydpi="89.846703" />
    <rect
       y="360.77573"
       x="193.41046"
       height="238.93365"
       width="238.93365"
       id="rect6065"
       style="opacity:1;fill:none;fill-opacity:1;fill-rule:nonzero;stroke:#0075a4;stroke-width:41.64400101;stroke-linecap:round;stroke-linejoin:miter;stroke-miterlimit:4;stroke-dasharray:none;stroke-dashoffset:0;stroke-opacity:1"
       inkscape:export-xdpi="89.846703"
       inkscape:export-ydpi="89.846703" />
    <path
       inkscape:connector-curvature="0"
       id="path6067"
       d="m 673.03859,339.14991 c -1.6553,-0.005 -3.38955,0.0545 -5.20313,0.18164 -10.25368,0.71876 -16.64274,3.5447 -19.59375,8.66602 -1.98697,3.44833 -2.01562,5.03532 -2.01562,107.5 0,117.36338 -0.58881,108.78906 7.78515,113.58593 3.88321,2.22442 5.27392,2.41407 17.71485,2.41407 16.30968,0 20.01318,-1.31206 23.99028,-8.5 2.3121,-4.17889 2.5262,-5.74045 3,-21.88867 l 0.5097,-17.38868 19,18.21094 c 18.83692,18.05617 29.28992,26.57743 37.00002,30.16211 5.9252,2.75482 10.3711,2.42461 15.8067,-1.17578 7.5898,-5.02726 16.4155,-17.19413 18.6679,-25.73633 2.1135,-8.01553 -0.028,-10.63805 -26.5097,-32.45898 -12.8324,-10.57387 -23.3616,-19.47296 -23.3985,-19.77539 -0.037,-0.30243 7.6068,-7.05243 16.9863,-15 17.7244,-15.01844 22.9473,-21.03963 22.9473,-26.46094 0,-7.50552 -12.6543,-25.22977 -21.082,-29.5293 -10.0384,-5.12121 -19.3906,-0.0972 -44.28912,23.79883 l -15.1289,14.52148 -0.5,-53.89062 c -0.4833,-52.08634 -0.5693,-54.00517 -2.5547,-57.38477 -3.8367,-6.53114 -11.54588,-9.81413 -23.13278,-9.85156 z m 385.56841,71.15234 c -26.9221,0.0513 -52.1704,11.38706 -68.01959,31.06055 -6.281,7.79649 -10.1968,15.39939 -13.47462,26.16211 -2.4699,8.11034 -2.7387,10.51107 -2.8007,24.97266 -0.059,13.79481 0.2471,17.1026 2.2167,24 4.61112,16.14846 14.58592,32.20753 25.74031,41.4414 9.6111,7.95624 26.7389,15.24412 40.957,17.42774 6.3699,0.97828 43.127,-0.29233 50,-1.72852 22.0779,-4.61337 32.5591,-14.81107 29.5664,-28.76562 -1.8341,-8.5519 -7.1857,-17.28028 -12.9492,-21.11914 -3.8401,-2.55776 -10.2038,-2.15945 -20.1621,1.25976 -16.2858,5.59178 -35.1786,5.92099 -45.4004,0.79102 -7.9081,-3.96878 -13.5547,-9.67353 -13.5547,-13.69336 0,-0.62458 14.0065,-1.09966 38.25,-1.29883 36.607,-0.30074 38.4473,-0.40565 42.8711,-2.45117 6.6372,-3.06892 12.3983,-8.68624 15.5938,-15.20313 2.4183,-4.93189 2.8216,-7.07612 3.1269,-16.66015 0.3997,-12.55042 -1.1369,-20.21421 -6.0234,-30.05078 -10.0722,-20.27577 -28.6764,-32.42363 -54.3184,-35.4668 -3.8917,-0.46187 -7.7731,-0.68507 -11.6191,-0.67774 z m -170.98641,0.0195 c -33.5193,-0.17414 -63.8875,16.79237 -77.2871,44.06054 -10.3087,20.97811 -11.3633,49.08157 -2.664,70.96875 10.8073,27.19049 32.0487,44.28377 61.7168,49.66406 7.2379,1.3126 43.5894,0.34706 51.8398,-1.37695 29.5091,-6.1662 37.8221,-22.15952 22.8145,-43.89453 -5.8067,-8.40971 -12.2669,-9.56913 -26.3594,-4.73047 -10.9478,3.75898 -26.6492,5.49048 -35.3965,3.9043 -10.0794,-1.82775 -19.7436,-7.72197 -22.166,-13.51953 -0.7666,-1.83484 -1.3926,-3.54736 -1.3926,-3.80469 0,-0.25734 17.2125,-0.60842 38.25,-0.78125 37.452,-0.30768 38.3543,-0.36338 43.25,-2.61328 10.6544,-4.8964 16.9924,-14.31168 18.3809,-27.30664 1.5973,-14.94892 -1.9459,-29.2042 -10.4278,-41.96289 -10.642,-16.00775 -27.5998,-25.4905 -50.0703,-27.9961 -3.5194,-0.39246 -7.0208,-0.5933 -10.4883,-0.61132 z m -353.82029,3.68164 c -10.57473,0.1091 -22.01839,3.31999 -31.69531,9.11718 -12.11779,7.25944 -25.37628,21.85918 -32.17578,35.42969 -8.9725,17.90741 -10.13924,41.46883 -3.02539,61.12891 9.0223,24.93436 33.71367,47.48303 56.07227,51.20898 16.51157,2.75156 32.46804,-0.98219 42.08593,-9.84765 l 4.48047,-4.12891 1.1582,3.50977 c 1.40843,4.26757 5.80239,8.14322 10.80665,9.53124 10.7373,2.97818 27.91045,2.06418 33.21875,-1.76757 1.375,-0.99253 3.5125,-3.78715 4.75,-6.20899 l 2.25,-4.40234 -0.01,-64.53906 -0.01,-64.53711 -2.36328,-5.07617 c -3.4279,-7.36169 -6.91357,-8.8278 -21.99609,-9.25782 -9.12886,-0.26027 -12.85153,0.0314 -16.07813,1.26367 -5.49902,2.1001 -10.33197,6.92131 -11.11328,11.08594 l -0.625,3.33203 -2.97851,-3.39258 c -3.68804,-4.20045 -14.88648,-9.91079 -22.56446,-11.50585 -3.23407,-0.67186 -6.66259,-0.97972 -10.1875,-0.94336 z m 642.9141,0.0391 c -5.9467,0.002 -11.8948,0.35744 -14.4414,1.06445 -5.924,1.64471 -10.0905,6.37011 -11.4688,13.00977 -0.8167,3.93276 -1.0682,23.5882 -0.8652,67.46484 0.2824,61.0529 0.317,61.98192 2.4492,66.5957 2.2726,4.91765 5.2295,7.07333 12.0547,8.78907 2.0804,0.52297 8.5315,0.82586 14.3359,0.67382 13.1148,-0.34347 18.1512,-2.57328 21.6973,-9.60546 2.1908,-4.34496 2.2459,-5.28837 2.2559,-36 0,-17.34596 0.4444,-34.2153 0.9804,-37.48828 1.2889,-7.87136 5.3355,-14.23632 11.461,-18.02344 4.5095,-2.78799 5.6114,-3.02549 13.9746,-3.02149 12.1998,0.005 18.1475,3.11718 22.9258,11.9961 2.0599,3.82759 2.176,5.59479 2.7109,41 0.6564,43.44587 0.6978,43.6366 10.4414,48.85351 3.4757,1.86094 5.6385,2.14253 16.5,2.14453 11.1104,0.002 13.0316,-0.25995 17.2832,-2.35351 3.4302,-1.68903 5.4106,-3.52794 7,-6.5 2.1816,-4.07883 2.2168,-4.77139 2.2168,-43.64453 0,-38.32858 -0.07,-39.76691 -2.3652,-48.5 -7.3996,-28.15856 -27.3857,-49.38008 -51.9024,-55.11133 -4.5519,-1.06408 -9.9922,-1.45655 -16.791,-1.21289 -8.8773,0.31814 -10.814,0.73232 -16.5,3.53711 -3.5431,1.74778 -8.978,5.44279 -12.0781,8.21094 l -5.6367,5.0332 -1.1582,-4.59961 c -1.4072,-5.58849 -5.3888,-9.79749 -10.6485,-11.25781 -2.5409,-0.70536 -8.4849,-1.05652 -14.4316,-1.05469 z m -118.043,44.60937 c 7.235,-0.0167 14.6494,2.55263 17.4278,6.79297 3.691,5.63317 2.8469,13.22289 -1.7598,15.82031 -1.3854,0.78111 -9.4027,1.31881 -23.2813,1.56055 l -21.166,0.36914 0.7969,-3.53906 c 1.7137,-7.59829 9.1598,-15.28957 18.6777,-19.29297 2.7629,-1.16216 6.0159,-1.70333 9.3047,-1.71094 z m -170.89061,0.0566 c 4.0179,0.0228 7.9473,0.7593 10.7813,2.20508 5.4476,2.77916 7.664,6.32282 7.664,12.25391 0,5.78569 -1.6888,7.75012 -7.6523,8.90234 -2.3913,0.46204 -12.3352,0.86077 -22.0977,0.88477 -17.1911,0.0422 -17.75,-0.0201 -17.75,-1.98828 0,-6.1129 8.9435,-16.28741 17.7383,-20.17774 3.1913,-1.41164 7.2985,-2.10284 11.3164,-2.08008 z m -346.0547,8.3418 c 13.73052,-0.0852 24.95507,11.58673 24.95507,25.94727 0,9.41409 -5.89236,18.85458 -14.31445,22.93164 -6.30925,3.05425 -15.69806,2.84084 -22.42187,-0.50977 -13.12782,-6.54187 -17.82564,-20.88583 -11.18946,-34.16601 4.75283,-9.51126 12.2323,-14.13653 22.97071,-14.20313 z"
       style="fill:#0075a4;fill-opacity:1"
       inkscape:export-xdpi="89.846703"
       inkscape:export-ydpi="89.846703" />
    <path
       sodipodi:nodetypes="cc"
       inkscape:connector-curvature="0"
       id="path6069"
       d="M 419.68486,369.21706 301.58259,590.65882"
       style="fill:none;fill-opacity:1;fill-rule:evenodd;stroke:#0075a4;stroke-width:50;stroke-linecap:butt;stroke-linejoin:miter;stroke-miterlimit:4;stroke-dasharray:none;stroke-opacity:1"
       inkscape:export-xdpi="89.846703"
       inkscape:export-ydpi="89.846703" />
    <path
       sodipodi:nodetypes="cc"
       style="fill:none;fill-opacity:1;fill-rule:evenodd;stroke:#0075a4;stroke-width:50;stroke-linecap:butt;stroke-linejoin:miter;stroke-miterlimit:4;stroke-dasharray:none;stroke-opacity:1"
       d="m 277.18744,400.94094 71.98897,92.61598"
       id="path6071"
       inkscape:connector-curvature="0"
       inkscape:export-xdpi="89.846703"
       inkscape:export-ydpi="89.846703" />
    <rect
       style="opacity:1;fill:none;fill-opacity:1;fill-rule:nonzero;stroke:#0075a4;stroke-width:41.64400101;stroke-linecap:round;stroke-linejoin:miter;stroke-miterlimit:4;stroke-dasharray:none;stroke-dashoffset:0;stroke-opacity:1"
       id="rect6073"
       width="238.93365"
       height="238.93365"
       x="197.6284"
       y="1404.7926"
       inkscape:export-xdpi="89.846703"
       inkscape:export-ydpi="89.846703" />
    <path
       sodipodi:nodetypes="ccccc"
       inkscape:connector-curvature="0"
       id="path6077"
       d="m 335.99407,1600.3343 59.88433,0 10e-6,-175.0921 0,48.5892 c 0,59.2774 -84.35877,61.2309 -84.35877,0"
       style="fill:none;fill-rule:evenodd;stroke:#0075a4;stroke-width:50;stroke-linecap:round;stroke-linejoin:miter;stroke-miterlimit:4;stroke-dasharray:none;stroke-opacity:1"
       inkscape:export-xdpi="89.846703"
       inkscape:export-ydpi="89.846703" />
    <text
       xml:space="preserve"
       style="font-style:normal;font-weight:normal;font-size:40px;line-height:125%;font-family:sans-serif;letter-spacing:0px;word-spacing:0px;fill:#0075a4;fill-opacity:1;stroke:none;stroke-width:1px;stroke-linecap:butt;stroke-linejoin:miter;stroke-opacity:1;"
       x="481.28085"
       y="618.35046"
       id="text6079"
       sodipodi:linespacing="125%"
       inkscape:export-xdpi="89.846703"
       inkscape:export-ydpi="89.846703"><tspan
         sodipodi:role="line"
         id="tspan6081"
         x="481.28085"
         y="618.35046"
         style="font-size:45px;letter-spacing:70px;fill:#0075a4;fill-opacity:1;">SOLUTIONS</tspan></text>
    <path
       inkscape:connector-curvature="0"
       id="path6067-8"
       d="m 679.56191,667.84083 c -1.6553,-0.005 -3.38955,0.0545 -5.20313,0.18164 -10.25368,0.71876 -16.64274,3.5447 -19.59375,8.66602 -1.98697,3.44833 -2.01562,5.03532 -2.01562,107.5 0,117.36338 -0.58881,108.78906 7.78515,113.58593 3.88321,2.22442 5.27392,2.41407 17.71485,2.41407 16.30968,0 20.01318,-1.31206 23.99028,-8.5 2.3121,-4.17889 2.5262,-5.74045 3,-21.88867 l 0.5097,-17.38868 19,18.21094 c 18.83692,18.05617 29.28992,26.57743 37.00002,30.16211 5.9252,2.75482 10.3711,2.42461 15.8067,-1.17578 7.5898,-5.02726 16.4155,-17.19413 18.6679,-25.73633 2.1135,-8.01553 -0.028,-10.63805 -26.5097,-32.45898 -12.8324,-10.57387 -23.3616,-19.47296 -23.3985,-19.77539 -0.037,-0.30243 7.6068,-7.05243 16.9863,-15 17.7244,-15.01844 22.9473,-21.03963 22.9473,-26.46094 0,-7.50552 -12.6543,-25.22977 -21.082,-29.5293 -10.0384,-5.12121 -19.3906,-0.0972 -44.28912,23.79883 l -15.1289,14.52148 -0.5,-53.89062 c -0.4833,-52.08634 -0.5693,-54.00517 -2.5547,-57.38477 -3.8367,-6.53114 -11.54588,-9.81413 -23.13278,-9.85156 z m 385.56839,71.15234 c -26.9221,0.0513 -52.1704,11.38706 -68.01957,31.06055 -6.281,7.79649 -10.1968,15.39939 -13.47462,26.16211 -2.4699,8.11034 -2.7387,10.51107 -2.8007,24.97266 -0.059,13.79481 0.2471,17.1026 2.2167,24 4.61112,16.14846 14.58592,32.20753 25.74029,41.4414 9.6111,7.95624 26.7389,15.24412 40.957,17.42774 6.3699,0.97828 43.127,-0.29233 50,-1.72852 22.0779,-4.61337 32.5591,-14.81107 29.5664,-28.76562 -1.8341,-8.5519 -7.1857,-17.28028 -12.9492,-21.11914 -3.8401,-2.55776 -10.2038,-2.15945 -20.1621,1.25976 -16.2858,5.59178 -35.1786,5.92099 -45.4004,0.79102 -7.9081,-3.96878 -13.5547,-9.67353 -13.5547,-13.69336 0,-0.62458 14.0065,-1.09966 38.25,-1.29883 36.607,-0.30074 38.4473,-0.40565 42.8711,-2.45117 6.6372,-3.06892 12.3983,-8.68624 15.5938,-15.20313 2.4183,-4.93189 2.8216,-7.07612 3.1269,-16.66015 0.3997,-12.55042 -1.1369,-20.21421 -6.0234,-30.05078 -10.0722,-20.27577 -28.6764,-32.42363 -54.3184,-35.4668 -3.8917,-0.46187 -7.7731,-0.68507 -11.6191,-0.67774 z m -170.98639,0.0195 c -33.5193,-0.17414 -63.8875,16.79237 -77.2871,44.06054 -10.3087,20.97811 -11.3633,49.08157 -2.664,70.96875 10.8073,27.19049 32.0487,44.28377 61.7168,49.66406 7.2379,1.3126 43.5894,0.34706 51.8398,-1.37695 29.5091,-6.1662 37.8221,-22.15952 22.8145,-43.89453 -5.8067,-8.40971 -12.2669,-9.56913 -26.3594,-4.73047 -10.9478,3.75898 -26.6492,5.49048 -35.3965,3.9043 -10.0794,-1.82775 -19.7436,-7.72197 -22.166,-13.51953 -0.7666,-1.83484 -1.3926,-3.54736 -1.3926,-3.80469 0,-0.25734 17.2125,-0.60842 38.25,-0.78125 37.452,-0.30768 38.3543,-0.36338 43.25,-2.61328 10.6544,-4.8964 16.9924,-14.31168 18.3809,-27.30664 1.5973,-14.94892 -1.9459,-29.2042 -10.4278,-41.96289 -10.642,-16.00775 -27.5998,-25.4905 -50.0703,-27.9961 -3.5194,-0.39246 -7.0208,-0.5933 -10.4883,-0.61132 z m -353.82029,3.68164 c -10.57473,0.1091 -22.01839,3.31999 -31.69531,9.11718 -12.11779,7.25944 -25.37628,21.85918 -32.17578,35.42969 -8.9725,17.90741 -10.13924,41.46883 -3.02539,61.12891 9.0223,24.93436 33.71367,47.48303 56.07227,51.20898 16.51157,2.75156 32.46804,-0.98219 42.08593,-9.84765 l 4.48047,-4.12891 1.1582,3.50977 c 1.40843,4.26757 5.80239,8.14322 10.80665,9.53124 10.7373,2.97818 27.91045,2.06418 33.21875,-1.76757 1.375,-0.99253 3.5125,-3.78715 4.75,-6.20899 l 2.25,-4.40234 -0.01,-64.53906 -0.01,-64.53711 -2.36328,-5.07617 c -3.4279,-7.36169 -6.91357,-8.8278 -21.99609,-9.25782 -9.12886,-0.26027 -12.85153,0.0314 -16.07813,1.26367 -5.49902,2.1001 -10.33197,6.92131 -11.11328,11.08594 l -0.625,3.33203 -2.97851,-3.39258 c -3.68804,-4.20045 -14.88648,-9.91079 -22.56446,-11.50585 -3.23407,-0.67186 -6.66259,-0.97972 -10.1875,-0.94336 z m 642.91408,0.0391 c -5.9467,0.002 -11.8948,0.35744 -14.4414,1.06445 -5.924,1.64471 -10.0905,6.37011 -11.4688,13.00977 -0.8167,3.93276 -1.0682,23.5882 -0.8652,67.46484 0.2824,61.0529 0.317,61.98192 2.4492,66.5957 2.2726,4.91765 5.2295,7.07333 12.0547,8.78907 2.0804,0.52297 8.5315,0.82586 14.3359,0.67382 13.1148,-0.34347 18.1512,-2.57328 21.6973,-9.60546 2.1908,-4.34496 2.2459,-5.28837 2.2559,-36 0,-17.34596 0.4444,-34.2153 0.9804,-37.48828 1.2889,-7.87136 5.3355,-14.23632 11.461,-18.02344 4.5095,-2.78799 5.6114,-3.02549 13.9746,-3.02149 12.1998,0.005 18.1475,3.11718 22.9258,11.9961 2.0599,3.82759 2.176,5.59479 2.7109,41 0.6564,43.44587 0.6978,43.6366 10.4414,48.85351 3.4757,1.86094 5.6385,2.14253 16.5,2.14453 11.1104,0.002 13.0316,-0.25995 17.2832,-2.35351 3.4302,-1.68903 5.4106,-3.52794 7,-6.5 2.1816,-4.07883 2.2168,-4.77139 2.2168,-43.64453 0,-38.32858 -0.07,-39.76691 -2.3652,-48.5 -7.3996,-28.15856 -27.3857,-49.38008 -51.9024,-55.11133 -4.5519,-1.06408 -9.9922,-1.45655 -16.791,-1.21289 -8.8773,0.31814 -10.814,0.73232 -16.5,3.53711 -3.5431,1.74778 -8.978,5.44279 -12.0781,8.21094 l -5.6367,5.0332 -1.1582,-4.59961 c -1.4072,-5.58849 -5.3888,-9.79749 -10.6485,-11.25781 -2.5409,-0.70536 -8.4849,-1.05652 -14.4316,-1.05469 z m -118.043,44.60937 c 7.235,-0.0167 14.6494,2.55263 17.4278,6.79297 3.691,5.63317 2.8469,13.22289 -1.7598,15.82031 -1.3854,0.78111 -9.4027,1.31881 -23.2813,1.56055 l -21.166,0.36914 0.7969,-3.53906 c 1.7137,-7.59829 9.1598,-15.28957 18.6777,-19.29297 2.7629,-1.16216 6.0159,-1.70333 9.3047,-1.71094 z m -170.89059,0.0566 c 4.0179,0.0228 7.9473,0.7593 10.7813,2.20508 5.4476,2.77916 7.664,6.32282 7.664,12.25391 0,5.78569 -1.6888,7.75012 -7.6523,8.90234 -2.3913,0.46204 -12.3352,0.86077 -22.0977,0.88477 -17.1911,0.0422 -17.75,-0.0201 -17.75,-1.98828 0,-6.1129 8.9435,-16.28741 17.7383,-20.17774 3.1913,-1.41164 7.2985,-2.10284 11.3164,-2.08008 z m -346.0547,8.3418 c 13.73052,-0.0852 24.95507,11.58673 24.95507,25.94727 0,9.41409 -5.89236,18.85458 -14.31445,22.93164 -6.30925,3.05425 -15.69806,2.84084 -22.42187,-0.50977 -13.12782,-6.54187 -17.82564,-20.88583 -11.18946,-34.16601 4.75283,-9.51126 12.2323,-14.13653 22.97071,-14.20313 z"
       style="fill:#0075a4;fill-opacity:1"
       inkscape:export-xdpi="89.846703"
       inkscape:export-ydpi="89.846703" />
    <text
       xml:space="preserve"
       style="font-style:normal;font-weight:normal;font-size:40px;line-height:125%;font-family:sans-serif;letter-spacing:0px;word-spacing:0px;fill:#0075a4;fill-opacity:1;stroke:none;stroke-width:1px;stroke-linecap:butt;stroke-linejoin:miter;stroke-opacity:1"
       x="487.80417"
       y="947.04138"
       id="text6079-6"
       sodipodi:linespacing="125%"
       inkscape:export-xdpi="89.846703"
       inkscape:export-ydpi="89.846703"><tspan
         sodipodi:role="line"
         id="tspan6081-5"
         x="487.80417"
         y="947.04138"
         style="font-size:45px;letter-spacing:70px;fill:#0075a4;fill-opacity:1">SOLUTIONS</tspan></text>
    <path
       inkscape:connector-curvature="0"
       id="path6067-3"
       d="m 685.527,1037.7098 c -1.6553,0 -3.3896,0.054 -5.2032,0.1817 -10.25363,0.7187 -16.64269,3.5447 -19.5937,8.666 -1.98697,3.4483 -2.01562,5.0353 -2.01562,107.5 0,117.3634 -0.58881,108.789 7.78515,113.5859 3.88321,2.2244 5.27392,2.4141 17.71487,2.4141 16.3097,0 20.0132,-1.3121 23.9903,-8.5 2.3121,-4.1789 2.5262,-5.7405 3,-21.8887 l 0.5097,-17.3887 19,18.211 c 18.8369,18.0561 29.2899,26.5774 37,30.1621 5.9252,2.7548 10.3711,2.4246 15.8067,-1.1758 7.5898,-5.0273 16.4155,-17.1941 18.6679,-25.7363 2.1135,-8.0156 -0.028,-10.6381 -26.5097,-32.459 -12.8324,-10.5739 -23.3616,-19.473 -23.3985,-19.7754 -0.037,-0.3024 7.6068,-7.0524 16.9863,-15 17.7244,-15.0184 22.9473,-21.0396 22.9473,-26.4609 0,-7.5056 -12.6543,-25.2298 -21.082,-29.5293 -10.0384,-5.1213 -19.3906,-0.097 -44.2891,23.7988 l -15.1289,14.5215 -0.5,-53.8907 c -0.4833,-52.0863 -0.5693,-54.0051 -2.5547,-57.3847 -3.8367,-6.5312 -11.5459,-9.8142 -23.1328,-9.8516 z m 385.5684,71.1524 c -26.9221,0.051 -52.1704,11.387 -68.0196,31.0605 -6.281,7.7965 -10.1968,15.3994 -13.4746,26.1621 -2.4699,8.1104 -2.7387,10.5111 -2.8007,24.9727 -0.059,13.7948 0.2471,17.1026 2.2167,24 4.6111,16.1484 14.5859,32.2075 25.7403,41.4414 9.6111,7.9562 26.7389,15.2441 40.957,17.4277 6.3699,0.9783 43.127,-0.2923 50,-1.7285 22.0779,-4.6134 32.5591,-14.8111 29.5664,-28.7656 -1.8341,-8.5519 -7.1857,-17.2803 -12.9492,-21.1192 -3.8401,-2.5577 -10.2038,-2.1594 -20.1621,1.2598 -16.2858,5.5918 -35.1786,5.921 -45.4004,0.791 -7.9081,-3.9688 -13.5547,-9.6735 -13.5547,-13.6933 0,-0.6246 14.0065,-1.0997 38.25,-1.2989 36.607,-0.3007 38.4473,-0.4056 42.8711,-2.4511 6.6372,-3.069 12.3983,-8.6863 15.5938,-15.2032 2.4183,-4.9319 2.8216,-7.0761 3.1269,-16.6601 0.3997,-12.5504 -1.1369,-20.2142 -6.0234,-30.0508 -10.0722,-20.2758 -28.6764,-32.4236 -54.3184,-35.4668 -3.8917,-0.4619 -7.7731,-0.6851 -11.6191,-0.6777 z m -170.9864,0.02 c -33.5193,-0.1742 -63.8875,16.7923 -77.2871,44.0605 -10.3087,20.9781 -11.3633,49.0816 -2.664,70.9687 10.8073,27.1905 32.0487,44.2838 61.7168,49.6641 7.2379,1.3126 43.5894,0.3471 51.8398,-1.3769 29.5091,-6.1662 37.8221,-22.1596 22.8145,-43.8946 -5.8067,-8.4097 -12.2669,-9.5691 -26.3594,-4.7304 -10.9478,3.7589 -26.6492,5.4904 -35.3965,3.9043 -10.0794,-1.8278 -19.7436,-7.722 -22.166,-13.5196 -0.7666,-1.8348 -1.3926,-3.5473 -1.3926,-3.8047 0,-0.2573 17.2125,-0.6084 38.25,-0.7812 37.452,-0.3077 38.3543,-0.3634 43.25,-2.6133 10.6544,-4.8964 16.9924,-14.3117 18.3809,-27.3066 1.5973,-14.949 -1.9459,-29.2042 -10.4278,-41.9629 -10.642,-16.0078 -27.5998,-25.4905 -50.0703,-27.9961 -3.5194,-0.3925 -7.0208,-0.5933 -10.4883,-0.6113 z m -353.82031,3.6816 c -10.57473,0.1091 -22.01839,3.32 -31.69531,9.1172 -12.11779,7.2594 -25.37628,21.8592 -32.17578,35.4297 -8.9725,17.9074 -10.13924,41.4688 -3.02539,61.1289 9.0223,24.9343 33.71367,47.483 56.07227,51.209 16.51157,2.7515 32.46804,-0.9822 42.08593,-9.8477 l 4.48047,-4.1289 1.1582,3.5098 c 1.40843,4.2675 5.80239,8.1432 10.80665,9.5312 10.7373,2.9782 27.91045,2.0642 33.21875,-1.7676 1.375,-0.9925 3.5125,-3.7871 4.75,-6.209 l 2.25,-4.4023 -0.01,-64.5391 -0.01,-64.5371 -2.36328,-5.0761 c -3.4279,-7.3617 -6.91357,-8.8278 -21.99609,-9.2579 -9.12886,-0.2602 -12.85153,0.031 -16.07813,1.2637 -5.49902,2.1001 -10.33197,6.9213 -11.11328,11.086 l -0.625,3.332 -2.97851,-3.3926 c -3.68804,-4.2004 -14.88648,-9.9108 -22.56446,-11.5058 -3.23407,-0.6719 -6.66259,-0.9798 -10.1875,-0.9434 z m 642.91411,0.039 c -5.9467,0 -11.8948,0.3574 -14.4414,1.0644 -5.924,1.6448 -10.0905,6.3702 -11.4688,13.0098 -0.8167,3.9328 -1.0682,23.5882 -0.8652,67.4649 0.2824,61.0529 0.317,61.9819 2.4492,66.5957 2.2726,4.9176 5.2295,7.0733 12.0547,8.789 2.0804,0.523 8.5315,0.8259 14.3359,0.6738 13.1148,-0.3434 18.1512,-2.5732 21.6973,-9.6054 2.1908,-4.345 2.2459,-5.2884 2.2559,-36 0,-17.346 0.4444,-34.2153 0.9804,-37.4883 1.2889,-7.8714 5.3355,-14.2363 11.461,-18.0234 4.5095,-2.788 5.6114,-3.0255 13.9746,-3.0215 12.1998,0.01 18.1475,3.1172 22.9258,11.9961 2.0599,3.8276 2.176,5.5948 2.7109,41 0.6564,43.4458 0.6978,43.6366 10.4414,48.8535 3.4757,1.8609 5.6385,2.1425 16.5,2.1445 11.1104,0 13.0316,-0.2599 17.2832,-2.3535 3.4302,-1.689 5.4106,-3.5279 7,-6.5 2.1816,-4.0788 2.2168,-4.7714 2.2168,-43.6445 0,-38.3286 -0.07,-39.7669 -2.3652,-48.5 -7.3996,-28.1586 -27.3857,-49.3801 -51.9024,-55.1114 -4.5519,-1.064 -9.9922,-1.4565 -16.791,-1.2128 -8.8773,0.3181 -10.814,0.7323 -16.5,3.5371 -3.5431,1.7477 -8.978,5.4428 -12.0781,8.2109 l -5.6367,5.0332 -1.1582,-4.5996 c -1.4072,-5.5885 -5.3888,-9.7975 -10.6485,-11.2578 -2.5409,-0.7054 -8.4849,-1.0565 -14.4316,-1.0547 z m -118.043,44.6094 c 7.235,-0.017 14.6494,2.5526 17.4278,6.7929 3.691,5.6332 2.8469,13.2229 -1.7598,15.8203 -1.3854,0.7812 -9.4027,1.3189 -23.2813,1.5606 l -21.166,0.3691 0.7969,-3.539 c 1.7137,-7.5983 9.1598,-15.2896 18.6777,-19.293 2.7629,-1.1622 6.0159,-1.7033 9.3047,-1.7109 z m -170.8906,0.057 c 4.0179,0.023 7.9473,0.7593 10.7813,2.205 5.4476,2.7792 7.664,6.3229 7.664,12.254 0,5.7856 -1.6888,7.7501 -7.6523,8.9023 -2.3913,0.462 -12.3352,0.8608 -22.0977,0.8848 -17.1911,0.042 -17.75,-0.02 -17.75,-1.9883 0,-6.1129 8.9435,-16.2874 17.7383,-20.1778 3.1913,-1.4116 7.2985,-2.1028 11.3164,-2.08 z m -346.05472,8.3418 c 13.73052,-0.085 24.95507,11.5867 24.95507,25.9472 0,9.4141 -5.89236,18.8546 -14.31445,22.9317 -6.30925,3.0542 -15.69806,2.8408 -22.42187,-0.5098 -13.12782,-6.5419 -17.82564,-20.8858 -11.18946,-34.166 4.75283,-9.5113 12.2323,-14.1365 22.97071,-14.2031 z"
       style="fill:#0075a4;fill-opacity:1"
       inkscape:export-xdpi="89.846703"
       inkscape:export-ydpi="89.846703" />
    <text
       xml:space="preserve"
       style="font-style:normal;font-weight:normal;font-size:40px;line-height:125%;font-family:sans-serif;letter-spacing:0px;word-spacing:0px;fill:#0075a4;fill-opacity:1;stroke:none;stroke-width:1px;stroke-linecap:butt;stroke-linejoin:miter;stroke-opacity:1"
       x="493.76923"
       y="1316.9104"
       id="text6079-1"
       sodipodi:linespacing="125%"
       inkscape:export-xdpi="89.846703"
       inkscape:export-ydpi="89.846703"><tspan
         sodipodi:role="line"
         id="tspan6081-1"
         x="493.76923"
         y="1316.9104"
         style="font-size:45px;letter-spacing:70px;fill:#0075a4;fill-opacity:1">SOLUTIONS</tspan></text>
    <path
       inkscape:connector-curvature="0"
       id="path6067-9"
       d="m 691.49203,1383.6836 c -1.6553,0 -3.38955,0.054 -5.20313,0.1816 -10.25368,0.7188 -16.64274,3.5447 -19.59375,8.666 -1.98697,3.4484 -2.01562,5.0354 -2.01562,107.5 0,117.3634 -0.58881,108.7891 7.78515,113.586 3.88321,2.2244 5.27392,2.414 17.71485,2.414 16.30968,0 20.01318,-1.312 23.99028,-8.5 2.3121,-4.1788 2.5262,-5.7404 3,-21.8886 l 0.5097,-17.3887 19,18.2109 c 18.83692,18.0562 29.28992,26.5775 37.00002,30.1621 5.9252,2.7549 10.3711,2.4247 15.8067,-1.1757 7.5898,-5.0273 16.4155,-17.1942 18.6679,-25.7364 2.1135,-8.0155 -0.028,-10.638 -26.5097,-32.4589 -12.8324,-10.5739 -23.3616,-19.473 -23.3985,-19.7754 -0.037,-0.3025 7.6068,-7.0525 16.9863,-15 17.7244,-15.0185 22.9473,-21.0397 22.9473,-26.461 0,-7.5055 -12.6543,-25.2297 -21.082,-29.5293 -10.0384,-5.1212 -19.3906,-0.097 -44.28912,23.7989 l -15.1289,14.5214 -0.5,-53.8906 c -0.4833,-52.0863 -0.5693,-54.0052 -2.5547,-57.3848 -3.8367,-6.5311 -11.54588,-9.8141 -23.13278,-9.8515 z m 385.56837,71.1523 c -26.9221,0.051 -52.1704,11.3871 -68.0196,31.0606 -6.281,7.7965 -10.19677,15.3994 -13.47457,26.1621 -2.4699,8.1103 -2.7387,10.5111 -2.8007,24.9726 -0.059,13.7949 0.2471,17.1026 2.2167,24 4.6111,16.1485 14.58587,32.2076 25.74027,41.4414 9.6111,7.9563 26.7389,15.2442 40.957,17.4278 6.3699,0.9783 43.127,-0.2923 50,-1.7285 22.0779,-4.6134 32.5591,-14.8111 29.5664,-28.7657 -1.8341,-8.5519 -7.1857,-17.2802 -12.9492,-21.1191 -3.8401,-2.5578 -10.2038,-2.1594 -20.1621,1.2598 -16.2858,5.5917 -35.1786,5.921 -45.4004,0.791 -7.9081,-3.9688 -13.5547,-9.6735 -13.5547,-13.6934 0,-0.6246 14.0065,-1.0996 38.25,-1.2988 36.607,-0.3007 38.4473,-0.4057 42.8711,-2.4512 6.6372,-3.0689 12.3983,-8.6862 15.5938,-15.2031 2.4183,-4.9319 2.8216,-7.0761 3.1269,-16.6602 0.3997,-12.5504 -1.1369,-20.2142 -6.0234,-30.0507 -10.0722,-20.2758 -28.6764,-32.4237 -54.3184,-35.4668 -3.8917,-0.4619 -7.7731,-0.6851 -11.6191,-0.6778 z m -170.98637,0.02 c -33.5193,-0.1741 -63.8875,16.7924 -77.2871,44.0606 -10.3087,20.9781 -11.3633,49.0815 -2.664,70.9687 10.8073,27.1905 32.0487,44.2838 61.7168,49.6641 7.2379,1.3126 43.5894,0.347 51.8398,-1.377 29.5091,-6.1662 37.8221,-22.1595 22.8145,-43.8945 -5.8067,-8.4097 -12.2669,-9.5691 -26.3594,-4.7305 -10.9478,3.759 -26.6492,5.4905 -35.3965,3.9043 -10.0794,-1.8277 -19.7436,-7.7219 -22.166,-13.5195 -0.7666,-1.8348 -1.3926,-3.5474 -1.3926,-3.8047 0,-0.2573 17.2125,-0.6084 38.25,-0.7812 37.452,-0.3077 38.3543,-0.3634 43.25,-2.6133 10.6544,-4.8964 16.9924,-14.3117 18.3809,-27.3067 1.5973,-14.9489 -1.9459,-29.2042 -10.4278,-41.9629 -10.642,-16.0077 -27.5998,-25.4905 -50.0703,-27.9961 -3.5194,-0.3924 -7.0208,-0.5933 -10.4883,-0.6113 z m -353.82028,3.6817 c -10.57473,0.1091 -22.01839,3.32 -31.69531,9.1171 -12.11779,7.2595 -25.37628,21.8592 -32.17578,35.4297 -8.9725,17.9074 -10.13924,41.4689 -3.02539,61.1289 9.0223,24.9344 33.71367,47.4831 56.07227,51.209 16.51157,2.7516 32.46804,-0.9822 42.08592,-9.8476 l 4.48047,-4.1289 1.1582,3.5097 c 1.40843,4.2676 5.80239,8.1433 10.80665,9.5313 10.7373,2.9782 27.91045,2.0642 33.21875,-1.7676 1.375,-0.9925 3.5125,-3.7871 4.75,-6.209 l 2.25,-4.4023 -0.01,-64.5391 -0.01,-64.5371 -2.36328,-5.0762 c -3.4279,-7.3617 -6.91357,-8.8278 -21.99609,-9.2578 -9.12886,-0.2603 -12.85153,0.031 -16.07813,1.2637 -5.49902,2.1001 -10.33197,6.9213 -11.11328,11.0859 l -0.625,3.3321 -2.97851,-3.3926 c -3.68804,-4.2005 -14.88647,-9.9108 -22.56445,-11.5059 -3.23407,-0.6718 -6.66259,-0.9797 -10.1875,-0.9433 z m 642.91405,0.039 c -5.9467,0 -11.8948,0.3574 -14.4414,1.0644 -5.924,1.6447 -10.0905,6.3701 -11.4688,13.0098 -0.8167,3.9327 -1.0682,23.5882 -0.8652,67.4648 0.2824,61.0529 0.317,61.9819 2.4492,66.5957 2.2726,4.9177 5.2295,7.0734 12.0547,8.7891 2.0804,0.523 8.5315,0.8259 14.3359,0.6738 13.1148,-0.3435 18.1512,-2.5733 21.6973,-9.6054 2.1908,-4.345 2.2459,-5.2884 2.2559,-36 0,-17.346 0.4444,-34.2153 0.9804,-37.4883 1.2889,-7.8714 5.3355,-14.2363 11.461,-18.0235 4.5095,-2.788 5.6114,-3.0255 13.9746,-3.0215 12.1998,0.01 18.1475,3.1172 22.9258,11.9961 2.0599,3.8276 2.176,5.5948 2.7109,41 0.6564,43.4459 0.6978,43.6366 10.4414,48.8536 3.4757,1.8609 5.6385,2.1425 16.5,2.1445 11.1104,0 13.0316,-0.26 17.2832,-2.3535 3.4302,-1.6891 5.4106,-3.528 7,-6.5 2.1816,-4.0789 2.2168,-4.7714 2.2168,-43.6446 0,-38.3285 -0.07,-39.7669 -2.3652,-48.5 -7.3996,-28.1585 -27.3857,-49.38 -51.9024,-55.1113 -4.5519,-1.0641 -9.9922,-1.4565 -16.791,-1.2129 -8.8773,0.3182 -10.814,0.7323 -16.5,3.5371 -3.5431,1.7478 -8.978,5.4428 -12.0781,8.211 l -5.6367,5.0332 -1.1582,-4.5996 c -1.4072,-5.5885 -5.3888,-9.7975 -10.6485,-11.2578 -2.5409,-0.7054 -8.4849,-1.0566 -14.4316,-1.0547 z m -118.043,44.6093 c 7.235,-0.017 14.6494,2.5527 17.4278,6.793 3.691,5.6332 2.8469,13.2229 -1.7598,15.8203 -1.3854,0.7811 -9.4027,1.3188 -23.2813,1.5606 l -21.166,0.3691 0.7969,-3.5391 c 1.7137,-7.5982 9.1598,-15.2895 18.6777,-19.2929 2.7629,-1.1622 6.0159,-1.7034 9.3047,-1.711 z m -170.89057,0.057 c 4.0179,0.023 7.9473,0.7593 10.7813,2.2051 5.4476,2.7792 7.664,6.3228 7.664,12.2539 0,5.7857 -1.6888,7.7501 -7.6523,8.9024 -2.3913,0.462 -12.3352,0.8607 -22.0977,0.8847 -17.1911,0.042 -17.75,-0.02 -17.75,-1.9882 0,-6.1129 8.9435,-16.2875 17.7383,-20.1778 3.1913,-1.4116 7.2985,-2.1028 11.3164,-2.0801 z m -346.05469,8.3418 c 13.73052,-0.085 24.95506,11.5868 24.95506,25.9473 0,9.4141 -5.89235,18.8546 -14.31444,22.9316 -6.30925,3.0543 -15.69806,2.8409 -22.42187,-0.5097 -13.12782,-6.5419 -17.82564,-20.8859 -11.18946,-34.166 4.75283,-9.5113 12.2323,-14.1366 22.97071,-14.2032 z"
       style="fill:#0075a4;fill-opacity:1"
       inkscape:export-xdpi="89.846703"
       inkscape:export-ydpi="89.846703" />
    <text
       xml:space="preserve"
       style="font-style:normal;font-weight:normal;font-size:40px;line-height:125%;font-family:sans-serif;letter-spacing:0px;word-spacing:0px;fill:#0075a4;fill-opacity:1;stroke:none;stroke-width:1px;stroke-linecap:butt;stroke-linejoin:miter;stroke-opacity:1"
       x="499.73431"
       y="1662.8842"
       id="text6079-9"
       sodipodi:linespacing="125%"
       inkscape:export-xdpi="89.846703"
       inkscape:export-ydpi="89.846703"><tspan
         sodipodi:role="line"
         id="tspan6081-8"
         x="499.73431"
         y="1662.8842"
         style="font-size:45px;letter-spacing:70px;fill:#0075a4;fill-opacity:1">SOLUTIONS</tspan></text>
    <path
       inkscape:connector-curvature="0"
       id="path6067-32"
       d="m 691.49203,1721.6224 c -1.6553,-0.01 -3.38955,0.054 -5.20313,0.1817 -10.25368,0.7187 -16.64274,3.5447 -19.59375,8.666 -1.98697,3.4483 -2.01562,5.0353 -2.01562,107.5 0,117.3634 -0.58881,108.789 7.78515,113.5859 3.88321,2.2244 5.27392,2.4141 17.71485,2.4141 16.30968,0 20.01318,-1.3121 23.99028,-8.5 2.3121,-4.1789 2.5262,-5.7405 3,-21.8887 l 0.5097,-17.3887 19,18.211 c 18.83692,18.0561 29.28992,26.5774 37.00002,30.1621 5.9252,2.7548 10.3711,2.4246 15.8067,-1.1758 7.5898,-5.0273 16.4155,-17.1941 18.6679,-25.7363 2.1135,-8.0156 -0.028,-10.6381 -26.5097,-32.459 -12.8324,-10.5739 -23.3616,-19.473 -23.3985,-19.7754 -0.037,-0.3024 7.6068,-7.0524 16.9863,-15 17.7244,-15.0184 22.9473,-21.0396 22.9473,-26.4609 0,-7.5056 -12.6543,-25.2298 -21.082,-29.5293 -10.0384,-5.1212 -19.3906,-0.097 -44.28912,23.7988 l -15.1289,14.5215 -0.5,-53.8906 c -0.4833,-52.0864 -0.5693,-54.0052 -2.5547,-57.3848 -3.8367,-6.5312 -11.54588,-9.8141 -23.13278,-9.8516 z m 385.56847,71.1524 c -26.9221,0.051 -52.1704,11.387 -68.0196,31.0605 -6.281,7.7965 -10.19681,15.3994 -13.47471,26.1621 -2.4699,8.1104 -2.7387,10.5111 -2.8007,24.9727 -0.059,13.7948 0.2471,17.1026 2.2167,24 4.6112,16.1484 14.58601,32.2075 25.74041,41.4414 9.6111,7.9562 26.7389,15.2441 40.957,17.4277 6.3699,0.9783 43.127,-0.2923 50,-1.7285 22.0779,-4.6134 32.5591,-14.8111 29.5664,-28.7656 -1.8341,-8.5519 -7.1857,-17.2803 -12.9492,-21.1192 -3.8401,-2.5577 -10.2038,-2.1594 -20.1621,1.2598 -16.2858,5.5918 -35.1786,5.921 -45.4004,0.791 -7.9081,-3.9688 -13.5547,-9.6735 -13.5547,-13.6933 0,-0.6246 14.0065,-1.0997 38.25,-1.2989 36.607,-0.3007 38.4473,-0.4056 42.8711,-2.4511 6.6372,-3.069 12.3983,-8.6863 15.5938,-15.2032 2.4183,-4.9319 2.8216,-7.0761 3.1269,-16.6601 0.3997,-12.5504 -1.1369,-20.2142 -6.0234,-30.0508 -10.0722,-20.2758 -28.6764,-32.4236 -54.3184,-35.4668 -3.8917,-0.4619 -7.7731,-0.6851 -11.6191,-0.6777 z m -170.98651,0.02 c -33.5193,-0.1742 -63.88746,16.7923 -77.28706,44.0605 -10.3087,20.9781 -11.3633,49.0816 -2.664,70.9688 10.8073,27.1904 32.0487,44.2837 61.71676,49.664 7.2379,1.3126 43.5894,0.3471 51.8398,-1.3769 29.5091,-6.1662 37.8221,-22.1596 22.8145,-43.8946 -5.8067,-8.4097 -12.2669,-9.5691 -26.3594,-4.7304 -10.9478,3.7589 -26.6492,5.4904 -35.3965,3.9043 -10.0794,-1.8278 -19.7436,-7.722 -22.166,-13.5196 -0.7666,-1.8348 -1.3926,-3.5473 -1.3926,-3.8047 0,-0.2573 17.2125,-0.6084 38.25,-0.7812 37.452,-0.3077 38.3543,-0.3634 43.25,-2.6133 10.6544,-4.8964 16.9924,-14.3117 18.3809,-27.3066 1.5973,-14.9489 -1.9459,-29.2042 -10.4278,-41.9629 -10.642,-16.0078 -27.5998,-25.4905 -50.0703,-27.9961 -3.5194,-0.3925 -7.0208,-0.5933 -10.4883,-0.6113 z m -353.82024,3.6816 c -10.57473,0.1091 -22.01839,3.32 -31.69531,9.1172 -12.11779,7.2594 -25.37628,21.8592 -32.17578,35.4297 -8.9725,17.9074 -10.13924,41.4688 -3.02539,61.1289 9.0223,24.9343 33.71367,47.483 56.07227,51.209 16.51157,2.7515 32.46804,-0.9822 42.08592,-9.8477 l 4.48047,-4.1289 1.1582,3.5098 c 1.40843,4.2675 5.80239,8.1432 10.80665,9.5312 10.7373,2.9782 27.91045,2.0642 33.21875,-1.7676 1.375,-0.9925 3.5125,-3.7871 4.75,-6.2089 l 2.25,-4.4024 -0.01,-64.539 -0.01,-64.5372 -2.36328,-5.0761 c -3.4279,-7.3617 -6.91357,-8.8278 -21.99609,-9.2578 -9.12886,-0.2603 -12.85153,0.031 -16.07813,1.2636 -5.49902,2.1001 -10.33197,6.9213 -11.11328,11.086 l -0.625,3.332 -2.97851,-3.3926 c -3.68804,-4.2004 -14.88647,-9.9108 -22.56445,-11.5058 -3.23407,-0.6719 -6.66259,-0.9798 -10.1875,-0.9434 z m 642.91415,0.039 c -5.9467,0 -11.8948,0.3574 -14.4414,1.0645 -5.924,1.6447 -10.0905,6.3701 -11.4688,13.0097 -0.8167,3.9328 -1.0682,23.5882 -0.8652,67.4649 0.2824,61.0529 0.317,61.9819 2.4492,66.5957 2.2726,4.9176 5.2295,7.0733 12.0547,8.789 2.0804,0.523 8.5315,0.8259 14.3359,0.6739 13.1148,-0.3435 18.1512,-2.5733 21.6973,-9.6055 2.1908,-4.345 2.2459,-5.2884 2.2559,-36 0,-17.346 0.4444,-34.2153 0.9804,-37.4883 1.2889,-7.8713 5.3355,-14.2363 11.461,-18.0234 4.5095,-2.788 5.6114,-3.0255 13.9746,-3.0215 12.1998,0 18.1475,3.1172 22.9258,11.9961 2.0599,3.8276 2.176,5.5948 2.7109,41 0.6564,43.4459 0.6978,43.6366 10.4414,48.8535 3.4757,1.8609 5.6385,2.1425 16.5,2.1445 11.1104,0 13.0316,-0.2599 17.2832,-2.3535 3.4302,-1.689 5.4106,-3.5279 7,-6.5 2.1816,-4.0788 2.2168,-4.7714 2.2168,-43.6445 0,-38.3286 -0.07,-39.7669 -2.3652,-48.5 -7.3996,-28.1586 -27.3857,-49.3801 -51.9024,-55.1113 -4.5519,-1.0641 -9.9922,-1.4566 -16.791,-1.2129 -8.8773,0.3181 -10.814,0.7323 -16.5,3.5371 -3.5431,1.7478 -8.978,5.4428 -12.0781,8.2109 l -5.6367,5.0332 -1.1582,-4.5996 c -1.4072,-5.5885 -5.3888,-9.7975 -10.6485,-11.2578 -2.5409,-0.7054 -8.4849,-1.0565 -14.4316,-1.0547 z m -118.043,44.6094 c 7.235,-0.017 14.6494,2.5526 17.4278,6.7929 3.691,5.6332 2.8469,13.2229 -1.7598,15.8204 -1.3854,0.7811 -9.4027,1.3188 -23.2813,1.5605 l -21.166,0.3691 0.7969,-3.539 c 1.7137,-7.5983 9.1598,-15.2896 18.6777,-19.293 2.7629,-1.1621 6.0159,-1.7033 9.3047,-1.7109 z m -170.89071,0.057 c 4.0179,0.023 7.9473,0.7593 10.7813,2.2051 5.4476,2.7791 7.664,6.3228 7.664,12.2539 0,5.7857 -1.6888,7.7501 -7.6523,8.9023 -2.3913,0.462 -12.3352,0.8608 -22.0977,0.8848 -17.1911,0.042 -17.75,-0.02 -17.75,-1.9883 0,-6.1129 8.9435,-16.2874 17.7383,-20.1777 3.1913,-1.4117 7.2985,-2.1029 11.3164,-2.0801 z m -346.05465,8.3418 c 13.73052,-0.085 24.95506,11.5867 24.95506,25.9472 0,9.4141 -5.89235,18.8546 -14.31444,22.9317 -6.30925,3.0542 -15.69806,2.8408 -22.42187,-0.5098 -13.12782,-6.5419 -17.82564,-20.8858 -11.18946,-34.166 4.75283,-9.5113 12.2323,-14.1365 22.97071,-14.2031 z"
       style="fill:#0075a4;fill-opacity:1"
       inkscape:export-xdpi="89.846703"
       inkscape:export-ydpi="89.846703" />
    <text
       xml:space="preserve"
       style="font-style:normal;font-weight:normal;font-size:40px;line-height:125%;font-family:sans-serif;letter-spacing:0px;word-spacing:0px;fill:#0075a4;fill-opacity:1;stroke:none;stroke-width:1px;stroke-linecap:butt;stroke-linejoin:miter;stroke-opacity:1"
       x="499.73428"
       y="2000.8231"
       id="text6079-62"
       sodipodi:linespacing="125%"
       inkscape:export-xdpi="89.846703"
       inkscape:export-ydpi="89.846703"><tspan
         sodipodi:role="line"
         id="tspan6081-6"
         x="499.73428"
         y="2000.8231"
         style="font-size:45px;letter-spacing:70px;fill:#0075a4;fill-opacity:1">SOLUTIONS</tspan></text>
    <path
       inkscape:connector-curvature="0"
       id="path6067-30"
       d="m 667.63178,2069.6662 c -1.6553,-0.01 -3.38955,0.054 -5.20313,0.1816 -10.25368,0.7188 -16.64274,3.5447 -19.59375,8.666 -1.98697,3.4483 -2.01562,5.0353 -2.01562,107.5 0,117.3634 -0.58881,108.7891 7.78515,113.5859 3.88321,2.2245 5.27392,2.4141 17.71485,2.4141 16.30968,0 20.01318,-1.312 23.99028,-8.5 2.3121,-4.1789 2.5262,-5.7404 3,-21.8887 l 0.5097,-17.3886 18.99997,18.2109 c 18.837,18.0562 29.29,26.5774 37.0001,30.1621 5.9252,2.7548 10.3711,2.4246 15.8067,-1.1758 7.5898,-5.0272 16.4155,-17.1941 18.6679,-25.7363 2.1135,-8.0155 -0.028,-10.638 -26.5097,-32.459 -12.8324,-10.5738 -23.3616,-19.4729 -23.3985,-19.7754 -0.037,-0.3024 7.6068,-7.0524 16.9863,-15 17.7244,-15.0184 22.9473,-21.0396 22.9473,-26.4609 0,-7.5055 -12.6543,-25.2298 -21.082,-29.5293 -10.0384,-5.1212 -19.3906,-0.097 -44.2892,23.7988 l -15.12887,14.5215 -0.5,-53.8906 c -0.4833,-52.0864 -0.5693,-54.0052 -2.5547,-57.3848 -3.8367,-6.5311 -11.54588,-9.8141 -23.13278,-9.8515 z m 385.56842,71.1523 c -26.9221,0.051 -52.1704,11.3871 -68.01957,31.0605 -6.281,7.7965 -10.1968,15.3994 -13.4746,26.1622 -2.4699,8.1103 -2.7387,10.511 -2.8007,24.9726 -0.059,13.7948 0.2471,17.1026 2.2167,24 4.6111,16.1485 14.5859,32.2075 25.7403,41.4414 9.61107,7.9563 26.73887,15.2441 40.95697,17.4278 6.3699,0.9782 43.127,-0.2924 50,-1.7286 22.0779,-4.6133 32.5591,-14.811 29.5664,-28.7656 -1.8341,-8.5519 -7.1857,-17.2803 -12.9492,-21.1191 -3.8401,-2.5578 -10.2038,-2.1595 -20.1621,1.2597 -16.2858,5.5918 -35.1786,5.921 -45.4004,0.7911 -7.9081,-3.9688 -13.5547,-9.6736 -13.5547,-13.6934 0,-0.6246 14.0065,-1.0997 38.25,-1.2988 36.607,-0.3008 38.4473,-0.4057 42.8711,-2.4512 6.6372,-3.0689 12.3983,-8.6862 15.5938,-15.2031 2.4183,-4.9319 2.8216,-7.0762 3.1269,-16.6602 0.3997,-12.5504 -1.1369,-20.2142 -6.0234,-30.0508 -10.0722,-20.2757 -28.6764,-32.4236 -54.3184,-35.4668 -3.8917,-0.4618 -7.7731,-0.685 -11.6191,-0.6777 z m -170.98637,0.019 c -33.5193,-0.1741 -63.8875,16.7924 -77.2871,44.0605 -10.3087,20.9781 -11.3633,49.0816 -2.664,70.9688 10.8073,27.1905 32.0487,44.2838 61.7168,49.664 7.2379,1.3126 43.5894,0.3471 51.8398,-1.3769 29.5091,-6.1662 37.8221,-22.1595 22.8145,-43.8945 -5.8067,-8.4097 -12.2669,-9.5692 -26.3594,-4.7305 -10.9478,3.759 -26.6492,5.4905 -35.3965,3.9043 -10.0794,-1.8278 -19.7436,-7.722 -22.166,-13.5195 -0.7666,-1.8349 -1.3926,-3.5474 -1.3926,-3.8047 0,-0.2574 17.2125,-0.6084 38.25,-0.7813 37.452,-0.3077 38.3543,-0.3634 43.25,-2.6133 10.6544,-4.8964 16.9924,-14.3116 18.3809,-27.3066 1.5973,-14.9489 -1.9459,-29.2042 -10.4278,-41.9629 -10.642,-16.0077 -27.5998,-25.4905 -50.0703,-27.9961 -3.5194,-0.3924 -7.0208,-0.5933 -10.4883,-0.6113 z m -353.82033,3.6816 c -10.57473,0.1091 -22.01839,3.32 -31.69531,9.1172 -12.11779,7.2595 -25.37628,21.8592 -32.17578,35.4297 -8.9725,17.9074 -10.13924,41.4688 -3.02539,61.1289 9.0223,24.9344 33.71367,47.483 56.07227,51.209 16.51157,2.7516 32.46804,-0.9822 42.08592,-9.8477 l 4.48047,-4.1289 1.1582,3.5098 c 1.40843,4.2676 5.80239,8.1432 10.80665,9.5312 10.7373,2.9782 27.91045,2.0642 33.21875,-1.7675 1.375,-0.9926 3.5125,-3.7872 4.75,-6.209 l 2.25,-4.4024 -0.01,-64.539 -0.01,-64.5371 -2.36328,-5.0762 c -3.4279,-7.3617 -6.91357,-8.8278 -21.99609,-9.2578 -9.12886,-0.2603 -12.85153,0.031 -16.07813,1.2637 -5.49902,2.1001 -10.33197,6.9213 -11.11328,11.0859 l -0.625,3.332 -2.97851,-3.3926 c -3.68804,-4.2004 -14.88647,-9.9107 -22.56445,-11.5058 -3.23407,-0.6719 -6.66259,-0.9797 -10.1875,-0.9434 z m 642.9141,0.039 c -5.9467,0 -11.8948,0.3575 -14.4414,1.0645 -5.924,1.6447 -10.0905,6.3701 -11.4688,13.0098 -0.8167,3.9327 -1.0682,23.5882 -0.8652,67.4648 0.2824,61.0529 0.317,61.9819 2.4492,66.5957 2.2726,4.9176 5.2295,7.0733 12.0547,8.7891 2.0804,0.5229 8.5315,0.8258 14.3359,0.6738 13.1148,-0.3435 18.1512,-2.5733 21.6973,-9.6055 2.1908,-4.3449 2.2459,-5.2883 2.2559,-36 0,-17.3459 0.4444,-34.2153 0.9804,-37.4883 1.2889,-7.8713 5.3355,-14.2363 11.461,-18.0234 4.5095,-2.788 5.6114,-3.0255 13.9746,-3.0215 12.1998,0.01 18.1475,3.1172 22.9258,11.9961 2.0599,3.8276 2.176,5.5948 2.7109,41 0.6564,43.4459 0.6978,43.6366 10.4414,48.8535 3.4757,1.861 5.6385,2.1426 16.5,2.1446 11.1104,0 13.0316,-0.26 17.2832,-2.3536 3.4302,-1.689 5.4106,-3.5279 7,-6.5 2.1816,-4.0788 2.2168,-4.7713 2.2168,-43.6445 0,-38.3286 -0.07,-39.7669 -2.3652,-48.5 -7.3996,-28.1585 -27.3857,-49.3801 -51.9024,-55.1113 -4.5519,-1.0641 -9.9922,-1.4566 -16.791,-1.2129 -8.8773,0.3181 -10.814,0.7323 -16.5,3.5371 -3.5431,1.7478 -8.978,5.4428 -12.0781,8.2109 l -5.6367,5.0332 -1.1582,-4.5996 c -1.4072,-5.5885 -5.3888,-9.7975 -10.6485,-11.2578 -2.5409,-0.7053 -8.4849,-1.0565 -14.4316,-1.0547 z m -118.043,44.6094 c 7.235,-0.017 14.6494,2.5526 17.4278,6.793 3.691,5.6331 2.8469,13.2229 -1.7598,15.8203 -1.3854,0.7811 -9.4027,1.3188 -23.2813,1.5605 l -21.166,0.3692 0.7969,-3.5391 c 1.7137,-7.5983 9.1598,-15.2896 18.6777,-19.293 2.7629,-1.1621 6.0159,-1.7033 9.3047,-1.7109 z m -170.89057,0.057 c 4.0179,0.023 7.9473,0.7593 10.7813,2.2051 5.4476,2.7791 7.664,6.3228 7.664,12.2539 0,5.7857 -1.6888,7.7501 -7.6523,8.9023 -2.3913,0.4621 -12.3352,0.8608 -22.0977,0.8848 -17.1911,0.042 -17.75,-0.02 -17.75,-1.9883 0,-6.1129 8.9435,-16.2874 17.7383,-20.1777 3.1913,-1.4117 7.2985,-2.1029 11.3164,-2.0801 z m -346.05474,8.3418 c 13.73052,-0.085 24.95506,11.5867 24.95506,25.9473 0,9.4141 -5.89235,18.8546 -14.31444,22.9316 -6.30925,3.0543 -15.69806,2.8409 -22.42187,-0.5098 -13.12782,-6.5418 -17.82564,-20.8858 -11.18946,-34.166 4.75283,-9.5112 12.2323,-14.1365 22.97071,-14.2031 z"
       style="fill:#0075a4;fill-opacity:1"
       inkscape:export-xdpi="89.846703"
       inkscape:export-ydpi="89.846703" />
    <text
       xml:space="preserve"
       style="font-style:normal;font-weight:normal;font-size:40px;line-height:125%;font-family:sans-serif;letter-spacing:0px;word-spacing:0px;fill:#0075a4;fill-opacity:1;stroke:none;stroke-width:1px;stroke-linecap:butt;stroke-linejoin:miter;stroke-opacity:1"
       x="475.87405"
       y="2348.8667"
       id="text6079-16"
       sodipodi:linespacing="125%"
       inkscape:export-xdpi="89.846703"
       inkscape:export-ydpi="89.846703"><tspan
         sodipodi:role="line"
         id="tspan6081-2"
         x="475.87405"
         y="2348.8667"
         style="font-size:45px;letter-spacing:70px;fill:#0075a4;fill-opacity:1">SOLUTIONS</tspan></text>
  </g>
</svg>
